<?xml version="1.0" encoding="utf-8"?>
<!-- Generator: Adobe Illustrator 16.0.0, SVG Export Plug-In . SVG Version: 6.00 Build 0)  -->
<!DOCTYPE svg PUBLIC "-//W3C//DTD SVG 1.1//EN" "http://www.w3.org/Graphics/SVG/1.1/DTD/svg11.dtd">
<svg version="1.1" id="Layer_1" xmlns="http://www.w3.org/2000/svg" xmlns:xlink="http://www.w3.org/1999/xlink" x="0px" y="0px"
	 width="57.334px" height="52.333px" viewBox="0 0 57.334 52.333" enable-background="new 0 0 57.334 52.333" xml:space="preserve">
<linearGradient id="SVGID_1_" gradientUnits="userSpaceOnUse" x1="13.2124" y1="25.5547" x2="45.1631" y2="25.5547">
	<stop  offset="0.004" style="stop-color:#FFB600"/>
	<stop  offset="1" style="stop-color:#FF386A"/>
</linearGradient>
<path fill="none" stroke="url(#SVGID_1_)" stroke-miterlimit="10" d="M39.036,19.927h2.811c0.771,0,1.433,0.274,1.987,0.831
	c0.55,0.551,0.83,1.213,0.83,1.98v16.882c0,0.769-0.28,1.433-0.83,1.984c-0.554,0.555-1.215,0.831-1.987,0.831H16.529
	c-0.771,0-1.433-0.276-1.986-0.831c-0.551-0.552-0.831-1.216-0.831-1.984V22.739c0-0.768,0.28-1.43,0.831-1.98
	c0.554-0.557,1.215-0.831,1.986-0.831h2.812v-5.626c0-1.54,0.551-2.86,1.659-3.968c1.104-1.107,2.429-1.66,3.967-1.66h8.439
	c1.539,0,2.86,0.553,3.968,1.66c1.104,1.107,1.661,2.428,1.661,3.968V19.927z M24.968,19.927h8.439v-4.219
	c0-0.396-0.137-0.727-0.407-1c-0.27-0.272-0.606-0.407-0.999-0.407h-5.627c-0.393,0-0.726,0.135-0.999,0.407
	c-0.271,0.273-0.407,0.604-0.407,1V19.927z"/>
</svg>
