<?xml version="1.0" encoding="utf-8"?>
<!-- Generator: Adobe Illustrator 16.0.0, SVG Export Plug-In . SVG Version: 6.00 Build 0)  -->
<!DOCTYPE svg PUBLIC "-//W3C//DTD SVG 1.1//EN" "http://www.w3.org/Graphics/SVG/1.1/DTD/svg11.dtd">
<svg version="1.1" id="Layer_1" xmlns="http://www.w3.org/2000/svg" xmlns:xlink="http://www.w3.org/1999/xlink" x="0px" y="0px"
	 width="57.334px" height="52.333px" viewBox="0 0 57.334 52.333" enable-background="new 0 0 57.334 52.333" xml:space="preserve">
<linearGradient id="SVGID_1_" gradientUnits="userSpaceOnUse" x1="12.3457" y1="26.0928" x2="46.4282" y2="26.0928">
	<stop  offset="0.004" style="stop-color:#FFB600"/>
	<stop  offset="1" style="stop-color:#FF386A"/>
</linearGradient>
<path fill="none" stroke="url(#SVGID_1_)" stroke-miterlimit="10" d="M15.601,10.929h27.569c0.756,0,1.401,0.271,1.946,0.813
	c0.541,0.541,0.813,1.19,0.813,1.946v2.755c0,0.756-0.272,1.402-0.813,1.944c-0.544,0.542-1.19,0.812-1.946,0.812H15.601
	c-0.753,0-1.4-0.271-1.941-0.812c-0.543-0.542-0.814-1.188-0.814-1.944v-2.755c0-0.756,0.271-1.405,0.814-1.946
	C14.2,11.2,14.847,10.929,15.601,10.929z M15.601,21.958h27.569c0.756,0,1.401,0.27,1.946,0.814
	c0.541,0.544,0.813,1.188,0.813,1.942v2.757c0,0.754-0.272,1.403-0.813,1.944c-0.544,0.54-1.19,0.813-1.946,0.813H15.601
	c-0.753,0-1.4-0.273-1.941-0.813c-0.543-0.541-0.814-1.19-0.814-1.944v-2.757c0-0.755,0.271-1.398,0.814-1.942
	C14.2,22.228,14.847,21.958,15.601,21.958z M15.601,32.985h27.569c0.756,0,1.401,0.271,1.946,0.813
	c0.541,0.542,0.813,1.193,0.813,1.942v2.76c0,0.753-0.272,1.4-0.813,1.942c-0.544,0.542-1.19,0.813-1.946,0.813H15.601
	c-0.753,0-1.4-0.271-1.941-0.813c-0.543-0.542-0.814-1.189-0.814-1.942v-2.76c0-0.749,0.271-1.4,0.814-1.942
	C14.2,33.256,14.847,32.985,15.601,32.985z M43.169,24.715H29.385v2.757h13.784V24.715z M43.169,35.741h-8.27v2.76h8.27V35.741z
	 M43.169,13.688h-5.513v2.755h5.513V13.688z"/>
</svg>
