<?xml version="1.0" encoding="utf-8"?>
<!-- Generator: Adobe Illustrator 16.0.0, SVG Export Plug-In . SVG Version: 6.00 Build 0)  -->
<!DOCTYPE svg PUBLIC "-//W3C//DTD SVG 1.1//EN" "http://www.w3.org/Graphics/SVG/1.1/DTD/svg11.dtd">
<svg version="1.1" id="Layer_1" xmlns="http://www.w3.org/2000/svg" xmlns:xlink="http://www.w3.org/1999/xlink" x="0px" y="0px"
	 width="111.667px" height="131.333px" viewBox="0 0 111.667 131.333" enable-background="new 0 0 111.667 131.333"
	 xml:space="preserve">
<linearGradient id="SVGID_1_" gradientUnits="userSpaceOnUse" x1="22.0293" y1="65.3804" x2="87.9307" y2="65.3804">
	<stop  offset="0.004" style="stop-color:#FFB600"/>
	<stop  offset="1" style="stop-color:#FF386A"/>
</linearGradient>
<path fill="none" stroke="url(#SVGID_1_)" stroke-width="0.942" stroke-miterlimit="10" d="M86.9,63.355l-3.322-5.762v-6.439
	c0-1.426-0.746-2.781-2.033-3.526l-5.559-3.187l-3.322-5.694c-0.746-1.22-2.033-2.033-3.525-2.033h-6.575l-5.626-3.255
	c-1.221-0.744-2.779-0.744-4.068,0l-5.627,3.255h-6.438c-1.425,0-2.78,0.745-3.526,2.033l-3.254,5.627l-5.762,3.254
	c-1.221,0.745-2.033,2.034-2.033,3.526v6.641l-3.187,5.561c-0.339,0.609-0.542,1.356-0.542,2.034c0,0.677,0.203,1.423,0.542,2.034
	l3.187,5.488v6.645c0,1.424,0.744,2.779,2.033,3.525l5.762,3.321l3.254,5.628c0.746,1.22,2.035,2.032,3.526,2.032h6.438l5.627,3.256
	c0.611,0.337,1.355,0.541,2.034,0.541s1.423-0.204,2.034-0.541l5.626-3.256h6.575c1.424,0,2.779-0.745,3.525-2.032l3.322-5.694
	l5.559-3.187c1.22-0.746,2.033-2.033,2.033-3.526v-6.439l3.322-5.761C87.646,66.135,87.646,64.574,86.9,63.355z M49.314,78.687
	L38.826,68.199l4.761-4.761l5.728,5.727l17.153-17.152l4.761,4.761L49.314,78.687z"/>
</svg>
