<?xml version="1.0" encoding="utf-8"?>
<!-- Generator: Adobe Illustrator 16.0.0, SVG Export Plug-In . SVG Version: 6.00 Build 0)  -->
<!DOCTYPE svg PUBLIC "-//W3C//DTD SVG 1.1//EN" "http://www.w3.org/Graphics/SVG/1.1/DTD/svg11.dtd">
<svg version="1.1" id="Layer_1" xmlns="http://www.w3.org/2000/svg" xmlns:xlink="http://www.w3.org/1999/xlink" x="0px" y="0px"
	 width="57.334px" height="52.333px" viewBox="0 0 57.334 52.333" enable-background="new 0 0 57.334 52.333" xml:space="preserve">
<linearGradient id="SVGID_1_" gradientUnits="userSpaceOnUse" x1="10.8838" y1="24.8345" x2="46.5669" y2="24.8345">
	<stop  offset="0.004" style="stop-color:#FFB600"/>
	<stop  offset="1" style="stop-color:#FF386A"/>
</linearGradient>
<path fill="none" stroke="url(#SVGID_1_)" stroke-miterlimit="10" d="M25.19,37.387c-0.988-0.264-1.935-0.655-2.841-1.18L22.2,36.12
	l-4.019,2.447c-1.208-0.928-2.266-1.984-3.172-3.176l2.416-4.047l-0.089-0.152c-0.483-0.885-0.864-1.82-1.148-2.807l-0.059-0.185
	l-4.562-1.146c-0.121-0.824-0.182-1.573-0.182-2.238c0-0.5,0.061-1.238,0.182-2.203l4.562-1.147l0.059-0.181
	c0.263-0.926,0.646-1.863,1.148-2.811l0.089-0.149l-2.416-4.05c0.928-1.169,1.983-2.225,3.172-3.176l4.019,2.451l0.15-0.09
	c0.888-0.506,1.834-0.898,2.841-1.18l0.15-0.031l1.15-4.59c0.947-0.104,1.69-0.152,2.234-0.152c0.685,0,1.431,0.049,2.237,0.152
	l1.147,4.59l0.181,0.031c0.967,0.281,1.902,0.674,2.81,1.18l0.151,0.09L39.3,11.1c1.208,0.951,2.254,2.007,3.141,3.176l-2.416,4.05
	l0.089,0.149c0.462,0.846,0.856,1.783,1.18,2.811l0.028,0.181l4.594,1.147c0.1,0.907,0.152,1.641,0.152,2.203
	c0,0.688-0.052,1.432-0.152,2.238l-4.594,1.146l-0.028,0.185c-0.302,0.986-0.695,1.922-1.18,2.807l-0.089,0.152l2.416,4.047
	c-0.966,1.229-2.014,2.286-3.141,3.176l-4.049-2.447L35.1,36.208c-0.947,0.524-1.884,0.916-2.81,1.18l-0.181,0.057l-1.147,4.564
	c-0.95,0.102-1.693,0.152-2.237,0.152c-0.683,0-1.43-0.051-2.234-0.152l-1.15-4.564L25.19,37.387z M22.229,24.817
	c0,1.797,0.634,3.326,1.903,4.594c1.271,1.268,2.802,1.902,4.592,1.902s3.323-0.635,4.592-1.902
	c1.267-1.268,1.905-2.797,1.905-4.594c0-1.772-0.638-3.291-1.905-4.559c-1.269-1.27-2.802-1.904-4.592-1.904
	s-3.322,0.635-4.592,1.904C22.864,21.526,22.229,23.044,22.229,24.817z"/>
</svg>
