<?xml version="1.0" encoding="utf-8"?>
<!-- Generator: Adobe Illustrator 16.0.0, SVG Export Plug-In . SVG Version: 6.00 Build 0)  -->
<!DOCTYPE svg PUBLIC "-//W3C//DTD SVG 1.1//EN" "http://www.w3.org/Graphics/SVG/1.1/DTD/svg11.dtd">
<svg version="1.1" id="Layer_1" xmlns="http://www.w3.org/2000/svg" xmlns:xlink="http://www.w3.org/1999/xlink" x="0px" y="0px"
	 width="111.667px" height="131.333px" viewBox="0 0 111.667 131.333" enable-background="new 0 0 111.667 131.333"
	 xml:space="preserve">
<linearGradient id="SVGID_1_" gradientUnits="userSpaceOnUse" x1="17.0781" y1="66.479" x2="95.0293" y2="66.479">
	<stop  offset="0.004" style="stop-color:#FFB600"/>
	<stop  offset="1" style="stop-color:#FF386A"/>
</linearGradient>
<path fill="url(#SVGID_1_)" d="M95.029,40.363L71.99,27.59l-8.813,15.275l-0.033,0.02L63,42.765v0.159l-22.8,3.963L17.078,34.318
	L28,49.668v43.167l22,12.004v0.529l36-6.448V55.562L95.029,40.363z M64,44.453l20.001,10.652L64,58.704V44.453z M72.378,28.94
	l21.291,11.799l-8.315,14.036L64.029,43.397L72.378,28.94z M63,43.939v14.945l-12.245,2.189L41.626,47.69l-0.001-0.033L63,43.939z
	 M40.901,48.454l7.84,11.084L28.966,49.033l-8.364-11.704L40.901,48.454z M29,50.232l21,11.045v0.299v42.123L29,92.244V50.232z
	 M71,100.7l-5,0.766V90.003l-2.551,0.432l4.763-7.351l5.048,5.793L71,89.227V100.7z M85,98.084l-13,2.435V90.099l3.201-0.475
	l-6.906-8.236l-6.832,10.391L65,91.178v10.468l-14,2.526V61.995l34-6.089V98.084z"/>
</svg>
