<?xml version="1.0" encoding="utf-8"?>
<!-- Generator: Adobe Illustrator 16.0.0, SVG Export Plug-In . SVG Version: 6.00 Build 0)  -->
<!DOCTYPE svg PUBLIC "-//W3C//DTD SVG 1.1//EN" "http://www.w3.org/Graphics/SVG/1.1/DTD/svg11.dtd">
<svg version="1.1" id="Layer_1" xmlns="http://www.w3.org/2000/svg" xmlns:xlink="http://www.w3.org/1999/xlink" x="0px" y="0px"
	 width="61px" height="62px" viewBox="0 0 61 62" enable-background="new 0 0 61 62" xml:space="preserve">
<g>
	<linearGradient id="SVGID_1_" gradientUnits="userSpaceOnUse" x1="14.374" y1="36.4175" x2="48.1016" y2="36.4175">
		<stop  offset="0.004" style="stop-color:#FFB600"/>
		<stop  offset="1" style="stop-color:#FF386A"/>
	</linearGradient>
	<path fill="none" stroke="url(#SVGID_1_)" stroke-width="0.7303" stroke-miterlimit="10" d="M46.912,30.643h-3.064
		c-0.454,0-0.648,0.195-0.648,0.648v6.363H19.276v-6.363c0-0.453-0.194-0.648-0.648-0.648h-3.063c-0.454,0-0.825,0.195-0.825,0.648
		v5.422c0,0.453,0,1.195,0,1.648v3.064c0,0.453,0.371,0.766,0.825,0.766h3.063c0.454,0,1.196,0,1.65,0h21.92
		c0.453,0,1.196,0,1.649,0h3.064c0.453,0,0.824-0.312,0.824-0.766v-3.064c0-0.453,0-1.195,0-1.648v-5.422
		C47.736,30.838,47.365,30.643,46.912,30.643z"/>
	<linearGradient id="SVGID_2_" gradientUnits="userSpaceOnUse" x1="21.0508" y1="21.9604" x2="41.4258" y2="21.9604">
		<stop  offset="0.004" style="stop-color:#FFB600"/>
		<stop  offset="1" style="stop-color:#FF386A"/>
	</linearGradient>
	<path fill="none" stroke="url(#SVGID_2_)" stroke-width="0.7303" stroke-miterlimit="10" d="M28.764,31.999
		c0,0.453,0.488,0.707,0.942,0.707h3.064c0.453,0,0.942-0.254,0.942-0.707v-8.779h6.953l-9.428-11.785l-9.428,11.785h6.953V31.999z"
		/>
</g>
</svg>
