<?xml version="1.0" encoding="utf-8"?>
<!-- Generator: Adobe Illustrator 16.0.0, SVG Export Plug-In . SVG Version: 6.00 Build 0)  -->
<!DOCTYPE svg PUBLIC "-//W3C//DTD SVG 1.1//EN" "http://www.w3.org/Graphics/SVG/1.1/DTD/svg11.dtd">
<svg version="1.1" id="Layer_1" xmlns="http://www.w3.org/2000/svg" xmlns:xlink="http://www.w3.org/1999/xlink" x="0px" y="0px"
	 width="61px" height="62px" viewBox="0 0 61 62" enable-background="new 0 0 61 62" xml:space="preserve">
<g>
	<g>
		<g>
			<g>
				<g transform="translate(-237.000000, -93.000000)">
					<g transform="translate(238.000000, 94.000000)">
						<linearGradient id="SVGID_1_" gradientUnits="userSpaceOnUse" x1="23.415" y1="29.9438" x2="32.3965" y2="29.9438">
							<stop  offset="0.004" style="stop-color:#FFB600"/>
							<stop  offset="1" style="stop-color:#FF386A"/>
						</linearGradient>
						<path fill="none" stroke="url(#SVGID_1_)" stroke-miterlimit="10" d="M23.883,28.604c0.526,1.404,2.165,2.356,4.022,2.356
							c1.858,0,3.497-0.952,4.022-2.356"/>
					</g>
				</g>
			</g>
			<linearGradient id="SVGID_2_" gradientUnits="userSpaceOnUse" x1="23.5068" y1="23.7334" x2="25.1025" y2="23.7334">
				<stop  offset="0.004" style="stop-color:#FFB600"/>
				<stop  offset="1" style="stop-color:#FF386A"/>
			</linearGradient>
			<circle fill="url(#SVGID_2_)" cx="24.305" cy="23.734" r="0.798"/>
			<linearGradient id="SVGID_3_" gradientUnits="userSpaceOnUse" x1="32.5791" y1="23.7334" x2="34.1738" y2="23.7334">
				<stop  offset="0.004" style="stop-color:#FFB600"/>
				<stop  offset="1" style="stop-color:#FF386A"/>
			</linearGradient>
			<circle fill="url(#SVGID_3_)" cx="33.376" cy="23.734" r="0.797"/>
		</g>
	</g>
	
		<linearGradient id="SVGID_4_" gradientUnits="userSpaceOnUse" x1="-5465.1074" y1="27.4482" x2="-5465.1074" y2="27.4482" gradientTransform="matrix(-1 0 0 1 -5436.2676 0)">
		<stop  offset="0.004" style="stop-color:#FFB600"/>
		<stop  offset="1" style="stop-color:#FF386A"/>
	</linearGradient>
	<path fill="none" stroke="url(#SVGID_4_)" stroke-miterlimit="10" d="M28.84,27.448"/>
	<linearGradient id="SVGID_5_" gradientUnits="userSpaceOnUse" x1="12.2949" y1="27.4482" x2="45.3857" y2="27.4482">
		<stop  offset="0.004" style="stop-color:#FFB600"/>
		<stop  offset="1" style="stop-color:#FF386A"/>
	</linearGradient>
	<path fill="none" stroke="url(#SVGID_5_)" stroke-miterlimit="10" d="M12.795,27.448c0,8.751,7.123,15.771,15.771,15.771
		c2.746,0,5.393-0.713,7.835-2.137l7.427,2.137c0.103,0,0.103,0,0.204,0c0.305,0,0.508,0,0.611-0.204
		c0.202-0.203,0.304-0.509,0.202-0.813l-2.441-7.124c1.323-2.34,2.035-4.984,2.035-7.63c0-8.751-7.021-15.771-15.771-15.771
		C20.02,11.677,12.795,18.697,12.795,27.448z"/>
</g>
</svg>
