<?xml version="1.0" encoding="utf-8"?>
<!-- Generator: Adobe Illustrator 16.0.0, SVG Export Plug-In . SVG Version: 6.00 Build 0)  -->
<!DOCTYPE svg PUBLIC "-//W3C//DTD SVG 1.1//EN" "http://www.w3.org/Graphics/SVG/1.1/DTD/svg11.dtd">
<svg version="1.1" id="Layer_1" xmlns="http://www.w3.org/2000/svg" xmlns:xlink="http://www.w3.org/1999/xlink" x="0px" y="0px"
	 width="70.667px" height="41.333px" viewBox="0 0 70.667 41.333" enable-background="new 0 0 70.667 41.333" xml:space="preserve">
<g>
	<path fill="#FFFFFF" d="M9.504,4.76l50.21,0.225c0,0,4.08-1.223,6.626-0.896c0,0,3.333,2.047,0.394,5.25l-3.332,3.277
		c0,0,3.527,0.201,0.914,5.035c0,0-13.262,14.572-24.237,10.783L4.082,28.717L9.504,4.76z"/>
	<g>
		<g id="g4966_1_" transform="matrix(1.705222,0,0,1.705222,-200.90733,-129.69426)">
			<g id="g84_1_" transform="translate(125.1273,453.3934)">
				<path id="path86_1_" fill="#FFFFFF" fill-opacity="0.9412" d="M-6.233-355.631h0.694l0.313-1.302h1.128l0.144-0.56h-1.132
					l0.187-0.838h1.206l0.145-0.651h-1.904L-6.233-355.631z"/>
			</g>
			<g id="g88_1_" transform="translate(151.0773,463.3934)">
				<path id="path90_1_" fill="#FFFFFF" fill-opacity="0.9412" d="M-29.068-365.631l0.209-0.875c0.109-0.473,0.342-0.894,0.78-0.894
					c0.039,0,0.077,0.021,0.106,0.024l0.17-0.67c-0.039,0-0.081-0.005-0.131-0.005c-0.322,0-0.594,0.226-0.774,0.552h-0.019
					c0.027-0.159,0.05-0.309,0.069-0.459h-0.599c-0.034,0.194-0.088,0.572-0.168,0.914l-0.341,1.413H-29.068z"/>
			</g>
			<g id="g92_1_" transform="translate(171.7073,463.3934)">
				<path id="path94_1_" fill="#FFFFFF" fill-opacity="0.9412" d="M-46.609-366.26c-0.192,0.096-0.412,0.072-0.667,0.072
					c-0.203,0-0.36-0.035-0.445-0.105c-0.045-0.076-0.064-0.192-0.06-0.268c0.943,0.025,1.538-0.192,1.568-0.789
					c0.022-0.45-0.306-0.7-0.785-0.7c-0.853,0-1.411,0.752-1.448,1.476c-0.031,0.633,0.297,0.944,0.973,0.944
					c0.259,0,0.604-0.029,0.885-0.115L-46.609-366.26z M-46.864-367.351c-0.01,0.222-0.285,0.235-0.825,0.23
					c0.06-0.194,0.257-0.372,0.58-0.372C-46.95-367.493-46.858-367.432-46.864-367.351z"/>
			</g>
			<g id="g96_1_" transform="translate(198.2273,463.3934)">
				<path id="path98_1_" fill="#FFFFFF" fill-opacity="0.9412" d="M-70.66-366.26c-0.194,0.096-0.413,0.072-0.668,0.072
					c-0.203,0-0.359-0.035-0.444-0.105c-0.045-0.076-0.064-0.192-0.061-0.268c0.944,0.025,1.538-0.192,1.569-0.789
					c0.022-0.45-0.307-0.7-0.784-0.7c-0.853,0-1.413,0.752-1.449,1.476c-0.03,0.633,0.297,0.944,0.972,0.944
					c0.261,0,0.606-0.029,0.888-0.115L-70.66-366.26z M-70.915-367.351c-0.011,0.222-0.285,0.235-0.825,0.23
					c0.06-0.194,0.256-0.372,0.579-0.372C-71.002-367.493-70.909-367.432-70.915-367.351z"/>
			</g>
			<g id="g100_1_" transform="translate(234.1373,463.3934)">
				<path id="path102_1_" fill="#FFFFFF" fill-opacity="0.9412" d="M-102.977-365.631c0.006-0.295,0.077-0.758,0.15-1.063
					l0.299-1.264c-0.19-0.064-0.486-0.093-0.771-0.093c-1.157,0-1.73,0.856-1.77,1.66c-0.025,0.503,0.247,0.76,0.672,0.76
					c0.274,0,0.584-0.132,0.826-0.533h0.009c-0.018,0.192-0.04,0.38-0.052,0.533H-102.977z M-103.454-366.96
					c-0.136,0.592-0.415,0.772-0.621,0.772c-0.192,0-0.277-0.137-0.266-0.337c0.023-0.451,0.378-0.968,0.827-0.968
					c0.073,0,0.13-0.012,0.183-0.026L-103.454-366.96z"/>
			</g>
			<g id="g104_1_" transform="translate(261.7673,463.3934)">
				<path id="path106_1_" fill="#FFFFFF" fill-opacity="0.9412" d="M-130.151-365.74c0.133,0.105,0.415,0.105,0.708,0.109
					c0.627,0.005,1.099-0.269,1.127-0.771c0.017-0.334-0.243-0.533-0.498-0.666c-0.183-0.089-0.276-0.174-0.27-0.272
					c0.006-0.134,0.131-0.152,0.314-0.152c0.207,0,0.373,0.025,0.467,0.044l0.189-0.505c-0.108-0.065-0.322-0.097-0.597-0.097
					c-0.608,0-1.053,0.322-1.077,0.808c-0.015,0.303,0.202,0.506,0.464,0.642c0.211,0.11,0.285,0.194,0.278,0.312
					c-0.006,0.119-0.112,0.101-0.306,0.101c-0.226,0-0.476-0.031-0.608-0.051L-130.151-365.74z"/>
			</g>
			<g id="g108_1_" transform="translate(294.2173,452.3934)">
				<path id="path110_1_" fill="#FFFFFF" fill-opacity="0.9412" d="M-158.887-354.631l0.564-2.327h-0.69l-0.568,2.327H-158.887z
					 M-158.563-357.238c0.236,0,0.447-0.196,0.46-0.531c0.011-0.227-0.136-0.307-0.353-0.307c-0.227,0-0.433,0.148-0.446,0.368
					C-158.913-357.487-158.766-357.238-158.563-357.238z"/>
			</g>
			<g id="g112_1_" transform="translate(308.5073,464.0834)">
				<path id="path114_1_" fill="#FFFFFF" fill-opacity="0.9412" d="M-171.845-366.321l0.245-1.047
					c0.128-0.534,0.402-0.722,0.629-0.722c0.178,0,0.231,0.077,0.222,0.187c-0.005,0.09-0.018,0.184-0.038,0.267l-0.312,1.314h0.695
					l0.329-1.379c0.025-0.119,0.053-0.296,0.059-0.404c0.02-0.42-0.189-0.572-0.574-0.572c-0.309,0-0.61,0.143-0.847,0.454h-0.009
					l0.063-0.426h-0.613c-0.04,0.199-0.091,0.44-0.164,0.722l-0.38,1.605H-171.845z"/>
			</g>
			<g id="g116_1_" transform="translate(348.0673,453.3934)">
				<path id="path118_1_" fill="#FFFFFF" fill-opacity="0.9412" d="M-208.417-355.631h0.694l0.314-1.302h1.127l0.145-0.56h-1.134
					l0.188-0.838h1.206l0.145-0.651h-1.904L-208.417-355.631z"/>
			</g>
			<g id="g120_1_" transform="translate(374.0173,463.3934)">
				<path id="path122_1_" fill="#FFFFFF" fill-opacity="0.9412" d="M-231.251-365.631l0.208-0.875
					c0.111-0.473,0.342-0.894,0.781-0.894c0.039,0,0.078,0.021,0.107,0.024l0.17-0.67c-0.04,0-0.082-0.005-0.131-0.005
					c-0.322,0-0.594,0.226-0.774,0.552h-0.019c0.027-0.159,0.05-0.309,0.069-0.459h-0.599c-0.033,0.194-0.088,0.572-0.168,0.914
					l-0.341,1.413H-231.251z"/>
			</g>
			<g id="g124_1_" transform="translate(394.6473,463.3934)">
				<path id="path126_1_" fill="#FFFFFF" fill-opacity="0.9412" d="M-248.792-366.26c-0.192,0.096-0.413,0.072-0.669,0.072
					c-0.202,0-0.359-0.035-0.443-0.105c-0.045-0.076-0.064-0.192-0.061-0.268c0.944,0.025,1.538-0.192,1.568-0.789
					c0.023-0.45-0.306-0.7-0.783-0.7c-0.852,0-1.412,0.752-1.449,1.476c-0.031,0.633,0.298,0.944,0.973,0.944
					c0.259,0,0.605-0.029,0.886-0.115L-248.792-366.26z M-249.046-367.351c-0.013,0.222-0.286,0.235-0.825,0.23
					c0.058-0.194,0.255-0.372,0.578-0.372C-249.133-367.493-249.042-367.432-249.046-367.351z"/>
			</g>
			<g id="g128_1_" transform="translate(421.1673,463.3934)">
				<path id="path130_1_" fill="#FFFFFF" fill-opacity="0.9412" d="M-272.844-366.26c-0.193,0.096-0.412,0.072-0.669,0.072
					c-0.202,0-0.357-0.035-0.443-0.105c-0.045-0.076-0.064-0.192-0.06-0.268c0.944,0.025,1.538-0.192,1.568-0.789
					c0.023-0.45-0.306-0.7-0.784-0.7c-0.854,0-1.412,0.752-1.448,1.476c-0.031,0.633,0.297,0.944,0.972,0.944
					c0.261,0,0.605-0.029,0.887-0.115L-272.844-366.26z M-273.098-367.351c-0.011,0.222-0.286,0.235-0.825,0.23
					c0.06-0.194,0.257-0.372,0.579-0.372C-273.185-367.493-273.092-367.432-273.098-367.351z"/>
			</g>
			<g id="g132_1_" transform="translate(447.5473,452.3934)">
				<path id="path134_1_" fill="#FFFFFF" fill-opacity="0.9412" d="M-296.465-358.076l-0.262,1.057
					c-0.094-0.039-0.219-0.032-0.315-0.032c-0.892,0-1.523,0.763-1.566,1.59c-0.027,0.583,0.284,0.83,0.684,0.83
					c0.281,0,0.576-0.124,0.798-0.443h0.01l-0.053,0.443h0.632c0.028-0.279,0.088-0.61,0.156-0.916l0.604-2.529H-296.465z
					 M-297.008-355.802c-0.109,0.46-0.366,0.614-0.569,0.614s-0.315-0.141-0.301-0.392c0.023-0.464,0.341-0.913,0.755-0.913
					c0.116,0,0.216,0.018,0.271,0.044L-297.008-355.802z"/>
			</g>
			<g id="g136_1_" transform="translate(477.2573,463.3934)">
				<path id="path138_1_" fill="#FFFFFF" fill-opacity="0.9412" d="M-324.591-365.631c0.81,0,1.434-0.613,1.478-1.448
					c0.027-0.554-0.317-0.971-0.953-0.971c-0.84,0-1.442,0.678-1.484,1.5C-325.578-365.953-325.193-365.631-324.591-365.631z
					 M-324.482-366.188c-0.236,0-0.367-0.152-0.352-0.376c0.018-0.375,0.25-0.928,0.649-0.928c0.275,0,0.36,0.211,0.349,0.419
					C-323.856-366.664-324.106-366.188-324.482-366.188z"/>
			</g>
			<g id="g140_1_" transform="translate(505.8173,463.3934)">
				<path id="path142_1_" fill="#FFFFFF" fill-opacity="0.9412" d="M-350.809-365.631l0.251-1.063
					c0.105-0.474,0.368-0.799,0.603-0.799c0.17,0,0.216,0.124,0.208,0.285c-0.005,0.085-0.023,0.179-0.042,0.273l-0.311,1.304h0.67
					l0.251-1.067c0.115-0.489,0.364-0.795,0.594-0.795c0.159,0,0.226,0.113,0.218,0.275c-0.003,0.094-0.024,0.198-0.048,0.292
					l-0.301,1.295h0.674l0.325-1.379c0.026-0.123,0.054-0.316,0.06-0.415c0.021-0.409-0.18-0.625-0.541-0.625
					c-0.309,0-0.61,0.139-0.838,0.433c-0.008-0.212-0.16-0.433-0.537-0.433c-0.304,0-0.595,0.137-0.827,0.449h-0.01l0.063-0.356
					h-0.598c-0.039,0.199-0.087,0.44-0.159,0.722l-0.375,1.605H-350.809z"/>
			</g>
		</g>
		<g>
			<g id="g68_1_" transform="matrix(1.705222,0,0,1.705222,352.86817,563.90874)">
				<path id="path70_1_" fill-opacity="0.9412" d="M-186.913-316.683L-186.913-316.683c-0.089,0-0.165,0.028-0.239,0.088
					c-0.054,0.042-0.091,0.1-0.12,0.165h0.004c0.029-0.065,0.066-0.123,0.119-0.165C-187.077-316.655-187-316.682-186.913-316.683z"
					/>
			</g>
			<path id="path74_1_" fill="#333333" d="M6.529,2.782L3.804,29.887c0.002,0,0.506,0,0.509,0h25.041l13.287-1.029
				c-1.583-0.137-2.832-0.691-3.577-1.705c-0.139-0.189-0.253-0.391-0.352-0.602c-0.064-0.155-0.125-0.312-0.185-0.472
				c-0.159-0.505-0.222-1.065-0.193-1.661c0.081-1.664,0.86-3.645,2.212-5.717c1.438-2.201,3.521-4.512,6.098-6.652
				c0.578-0.479,1.176-0.954,1.801-1.414c0.773-0.569,1.554-1.093,2.332-1.583c2.873-1.809,5.738-3.073,8.277-3.716
				c-2.427,0.791-5.152,2.135-7.845,3.965c-0.097,0.064-0.193,0.131-0.288,0.197c-1.494,1.035-2.847,2.135-4.029,3.244
				c-3.801,3.574-5.808,7.276-4.895,9.448c0.064,0.147,0.141,0.291,0.232,0.425c0.98,1.445,3.412,1.693,6.494,0.92
				c0.21-0.054,0.42-0.113,0.635-0.174c0.984-0.284,2.029-0.669,3.105-1.143c0.26-0.113,0.521-0.23,0.784-0.357
				c0.026-0.012,0.052-0.023,0.079-0.038c3.398-1.688,6.01-3.634,6.574-4.799c0.124-0.254,0.152-0.47,0.069-0.64
				c-0.403-0.817-3.225-0.266-6.644,1.215c-0.274,0.121-0.553,0.242-0.834,0.371c0.23-0.21,0.467-0.424,0.711-0.633
				c0.387-0.334,0.788-0.661,1.215-0.982c0.668-0.506,1.344-0.965,2.009-1.371c3.116-2.35,4.69-4.571,4.362-5.396
				c-0.062-0.156-0.195-0.264-0.397-0.327c-0.649-0.207-1.835,0.04-3.274,0.63c-1.188,0.486-2.551,1.211-3.934,2.109l-0.189,0.123
				l-0.035,0.02l-0.664,0.441l0.382-0.699c0.566-1.038,1.489-2.12,2.64-3.125c0.844-0.736,1.805-1.428,2.842-2.035
				c0.393-0.229,0.785-0.443,1.178-0.633c0.4-0.198,0.803-0.371,1.194-0.529c1.138-0.449,2.522-1.017,3.47-1.092
				c-0.086,0-2.959,0.295-2.959,0.295l-8.98-1.983H12.466H6.529z M37.814,4.801c-0.155,2.375,0.306,5.852,1.35,9.713
				c0.187,0.689,0.389,1.387,0.61,2.094c0.138,0.438,0.28,0.868,0.427,1.291c-0.086,0.126-0.172,0.252-0.253,0.376
				c-1.304,1.998-2.065,3.886-2.258,5.528c-0.552-1.844-0.966-3.865-1.2-6.012c-0.068-0.611-0.119-1.218-0.154-1.815
				C36.079,11.615,36.648,7.666,37.814,4.801z M11.8,7.891c0.031,0,0.061,0,0.091,0h5.87c0.5,0,0.889,0.096,1.165,0.283
				c0.274,0.189,0.377,0.436,0.312,0.734l-0.7,3.16h-2.069l0.681-3.076h-5.18l-1.871,8.455l-0.674,3.061h5.174l0.006-0.021
				l1.037-4.685H13.21l0.234-1.055h4.499l-1.289,5.844c-0.019,0.084-0.049,0.16-0.091,0.234c-0.107,0.192-0.291,0.359-0.55,0.496
				c-0.359,0.188-0.788,0.281-1.29,0.281H8.86c-0.502,0-0.891-0.094-1.166-0.281c-0.275-0.189-0.38-0.43-0.312-0.73L9.965,8.908
				c0.067-0.299,0.274-0.545,0.636-0.734c0.013-0.008,0.027-0.008,0.04-0.016C10.97,7.994,11.356,7.9,11.8,7.891z M21,7.891h7.388
				c0.496,0,0.884,0.096,1.161,0.283c0.278,0.189,0.385,0.436,0.317,0.734l-1.378,6.232c-0.066,0.297-0.279,0.538-0.642,0.728
				c-0.362,0.19-0.788,0.287-1.284,0.287h-5.368l-1.038,4.681l-0.168,0.768h-2.024l0.153-0.693L21,7.891z M31.206,7.891h2.024
				l-2.293,10.355l-0.5,2.262h4.842c0.051,0.372,0.109,0.736,0.174,1.096h-7.283l0.575-2.6L31.206,7.891z M22.781,8.992
				l-1.344,6.062h5.045l1.34-6.062H22.781z M18.539,22.557c0.021-0.002,0.041,0,0.061,0c0.234,0,0.439,0.041,0.605,0.12
				c0.176,0.083,0.302,0.206,0.371,0.368c0.068,0.156,0.086,0.333,0.05,0.528l-0.015,0.075h-0.58l0.005-0.069
				c0.015-0.137-0.002-0.243-0.054-0.317c-0.008-0.01-0.019-0.023-0.026-0.03c-0.013-0.015-0.032-0.028-0.05-0.041
				c-0.081-0.05-0.207-0.077-0.372-0.077c-0.218,0-0.38,0.037-0.491,0.112c-0.107,0.075-0.176,0.158-0.198,0.26
				s0.015,0.154,0.04,0.183c0,0.002,0.004,0.006,0.005,0.006c0.032,0.025,0.144,0.09,0.491,0.174
				c0.313,0.074,0.523,0.144,0.64,0.203c0.179,0.09,0.302,0.207,0.368,0.352c0.064,0.143,0.078,0.309,0.04,0.491
				c-0.04,0.177-0.131,0.339-0.264,0.492c-0.133,0.15-0.3,0.271-0.501,0.356c-0.201,0.084-0.42,0.129-0.646,0.129
				c-0.286,0-0.515-0.043-0.694-0.129c-0.188-0.088-0.322-0.23-0.402-0.414c-0.076-0.176-0.092-0.377-0.05-0.598l0.017-0.07h0.568
				l-0.004,0.07c-0.016,0.133,0,0.24,0.035,0.316c0.033,0.078,0.096,0.14,0.198,0.189c0.106,0.052,0.243,0.078,0.396,0.078
				c0.139,0,0.265-0.021,0.376-0.063c0.113-0.04,0.201-0.091,0.264-0.159c0.062-0.066,0.099-0.137,0.115-0.214
				c0.016-0.067,0.012-0.124-0.015-0.173c-0.03-0.049-0.091-0.096-0.185-0.133l-0.484-0.145c-0.273-0.068-0.455-0.134-0.562-0.199
				c-0.145-0.086-0.249-0.195-0.303-0.328c-0.055-0.131-0.06-0.273-0.025-0.43c0.037-0.17,0.118-0.33,0.244-0.475
				c0.127-0.143,0.291-0.255,0.486-0.33C18.166,22.602,18.348,22.565,18.539,22.557z M23.749,22.568c0.032-0.004,0.061,0,0.095,0
				l0.356,0.037l0.12,0.01l-0.175,0.443l-0.034,0.069l-0.273-0.026c-0.081,0-0.139,0.012-0.178,0.041
				c-0.003,0.002-0.008,0.008-0.011,0.01c-0.005,0.004-0.013,0.014-0.02,0.021c-0.024,0.029-0.053,0.086-0.074,0.188
				c0,0-0.01,0.043-0.021,0.08c0.125,0,0.427,0,0.427,0l-0.108,0.49c0,0-0.312,0-0.418,0c-0.031,0.143-0.42,1.891-0.42,1.891h-0.576
				c0,0,0.375-1.68,0.422-1.891c-0.098,0-0.334,0-0.334,0l0.11-0.49c0,0,0.236,0,0.327,0c0.016-0.07,0.04-0.157,0.04-0.157
				c0.035-0.156,0.071-0.271,0.118-0.351c0.066-0.109,0.157-0.201,0.274-0.268C23.492,22.609,23.612,22.577,23.749,22.568z
				 M25.123,22.592c0,0-0.15,0.676-0.188,0.85c0.112,0,0.372,0,0.372,0l-0.109,0.49c0,0-0.272,0-0.372,0
				c-0.03,0.137-0.269,1.195-0.269,1.195s-0.02,0.129-0.02,0.163v0.005v0.007c0.002,0,0.006,0,0.006,0l0.059,0.003l0.273-0.021
				l-0.029,0.442l0.005,0.08l-0.392,0.044c-0.156,0-0.27-0.024-0.354-0.079c-0.087-0.057-0.137-0.133-0.157-0.227
				c-0.004-0.02-0.011-0.044-0.011-0.082c0-0.069,0.013-0.189,0.059-0.4c0,0,0.209-0.935,0.254-1.131c-0.075,0-0.273,0-0.273,0
				l0.11-0.49c0,0,0.192,0,0.272,0c0.025-0.116,0.113-0.508,0.113-0.508l0.462-0.244L25.123,22.592z M6.839,22.611h2.233
				l-0.124,0.557c0,0-1.489,0-1.633,0c-0.024,0.111-0.127,0.568-0.163,0.732c0.205,0,1.414,0,1.414,0l-0.125,0.557
				c0,0-1.27,0-1.413,0c-0.031,0.139-0.303,1.365-0.303,1.365h-0.6L6.839,22.611z M9.832,23.397c0.022-0.005,0.047,0,0.069,0
				c0.144,0,0.275,0.041,0.401,0.133l0.081,0.054l-0.308,0.509l-0.085-0.062c-0.062-0.04-0.128-0.057-0.199-0.057
				c-0.06,0-0.116,0.019-0.173,0.057c-0.06,0.041-0.11,0.092-0.148,0.165c-0.066,0.12-0.116,0.257-0.149,0.406l-0.267,1.222H8.478
				l0.531-2.381h0.535c0,0-0.02,0.072-0.025,0.098c0.025-0.02,0.053-0.044,0.074-0.061C9.671,23.432,9.751,23.404,9.832,23.397z
				 M11.539,23.397c0.035-0.005,0.069,0,0.104,0c0.324,0,0.569,0.111,0.73,0.336c0.1,0.144,0.154,0.322,0.154,0.537
				c0,0.116-0.016,0.242-0.046,0.381l-0.044,0.174c0,0-1.456,0-1.617,0c-0.004,0.035-0.006,0.067-0.006,0.098
				c0,0.125,0.025,0.223,0.08,0.295c0.025,0.034,0.055,0.065,0.088,0.088c0.064,0.043,0.146,0.066,0.244,0.066
				c0.117,0,0.221-0.033,0.317-0.096c0.093-0.059,0.181-0.152,0.257-0.282h0.616l-0.054,0.118c-0.118,0.238-0.282,0.425-0.487,0.555
				c-0.204,0.135-0.45,0.205-0.719,0.205c-0.351,0-0.613-0.113-0.773-0.338c-0.161-0.219-0.194-0.521-0.11-0.902
				c0.086-0.387,0.258-0.697,0.506-0.912C11.003,23.524,11.256,23.416,11.539,23.397z M14.125,23.397c0.033-0.005,0.068,0,0.104,0
				c0.323,0,0.568,0.111,0.729,0.336c0.101,0.144,0.154,0.322,0.154,0.537c0,0.114-0.014,0.238-0.045,0.376l-0.045,0.179
				c0,0-1.456,0-1.617,0c-0.002,0.021-0.004,0.043-0.005,0.064c-0.001,0.009,0,0.02,0,0.02v0.014c0,0.025,0.003,0.051,0.005,0.071
				c0.009,0.09,0.033,0.167,0.074,0.224c0.008,0.01,0.018,0.023,0.024,0.034c0.073,0.077,0.177,0.12,0.308,0.12
				c0.117,0,0.223-0.033,0.318-0.096c0.092-0.059,0.181-0.152,0.258-0.282h0.621l-0.061,0.118c-0.117,0.238-0.281,0.425-0.486,0.555
				c-0.205,0.135-0.449,0.205-0.719,0.205c-0.352,0-0.613-0.113-0.773-0.338c-0.105-0.142-0.154-0.326-0.154-0.54
				c0-0.034,0.001-0.071,0.005-0.104c0.006-0.084,0.019-0.168,0.04-0.258c0.086-0.386,0.252-0.697,0.501-0.912
				C13.584,23.524,13.84,23.416,14.125,23.397z M21.164,23.397c0.035-0.005,0.068,0,0.104,0c0.33,0,0.583,0.109,0.749,0.332
				c0.163,0.221,0.202,0.517,0.118,0.893c-0.064,0.291-0.159,0.527-0.288,0.701c-0.127,0.17-0.291,0.309-0.484,0.404
				s-0.396,0.145-0.602,0.145c-0.336,0-0.587-0.115-0.749-0.338c-0.104-0.142-0.157-0.322-0.157-0.54
				c0-0.118,0.012-0.243,0.043-0.382c0.096-0.427,0.29-0.75,0.576-0.957C20.684,23.502,20.916,23.414,21.164,23.397z M29.88,23.397
				c0.043-0.005,0.081,0,0.125,0c0.199,0,0.356,0.02,0.477,0.068c0.126,0.051,0.217,0.122,0.268,0.209
				c0.049,0.08,0.074,0.18,0.074,0.302l-0.06,0.362l-0.108,0.49c-0.095,0.421-0.115,0.576-0.12,0.635
				c-0.005,0.082,0.003,0.156,0.025,0.229l0.039,0.13h-0.585l-0.025-0.074c-0.01-0.037-0.006-0.082-0.01-0.119
				c-0.111,0.067-0.222,0.129-0.322,0.163c-0.147,0.05-0.302,0.079-0.457,0.079c-0.27,0-0.47-0.069-0.59-0.209
				c-0.092-0.102-0.133-0.227-0.133-0.367c0-0.055,0.005-0.108,0.018-0.168c0.027-0.123,0.077-0.233,0.154-0.333
				c0.076-0.1,0.167-0.179,0.268-0.237c0.1-0.061,0.209-0.1,0.322-0.129l0.354-0.061c0.271-0.031,0.474-0.07,0.619-0.115
				c0.004-0.016,0.01-0.033,0.01-0.033c0.023-0.104,0.021-0.18-0.004-0.219c-0.002-0.001-0.008-0.007-0.01-0.011
				c-0.006-0.004-0.014-0.014-0.02-0.017c-0.061-0.051-0.162-0.072-0.299-0.072c-0.154,0-0.268,0.027-0.348,0.075
				c-0.077,0.05-0.149,0.14-0.213,0.269h-0.6l0.055-0.12c0.07-0.165,0.156-0.302,0.263-0.405c0.105-0.105,0.25-0.188,0.417-0.244
				C29.591,23.432,29.732,23.404,29.88,23.397z M32.394,23.397c0.024-0.005,0.049,0,0.072,0c0.145,0,0.279,0.041,0.405,0.133
				l0.074,0.054l-0.306,0.509l-0.086-0.062c-0.061-0.04-0.125-0.057-0.193-0.057c-0.061,0-0.118,0.019-0.179,0.057
				c-0.06,0.041-0.103,0.092-0.143,0.165c-0.065,0.12-0.116,0.257-0.149,0.406l-0.273,1.222h-0.575l0.53-2.381h0.537
				c0,0-0.014,0.072-0.02,0.098c0.024-0.02,0.051-0.044,0.073-0.061C32.238,23.432,32.317,23.404,32.394,23.397z M34.096,23.397
				c0.036-0.005,0.071,0,0.106,0c0.323,0,0.57,0.111,0.729,0.336c0.102,0.144,0.152,0.322,0.152,0.537
				c0,0.116-0.018,0.242-0.047,0.381l-0.041,0.174c0,0-1.456,0-1.617,0c-0.004,0.035-0.01,0.067-0.01,0.098
				c0,0.125,0.028,0.223,0.078,0.295c0.008,0.01,0.022,0.023,0.03,0.034c0.007,0.007,0.016,0.015,0.021,0.021
				c0.071,0.062,0.168,0.1,0.287,0.1c0.117,0,0.222-0.033,0.318-0.096c0.092-0.059,0.179-0.152,0.258-0.282h0.62l-0.06,0.118
				c-0.118,0.238-0.283,0.425-0.486,0.555c-0.205,0.135-0.447,0.205-0.719,0.205c-0.351,0-0.607-0.113-0.771-0.338
				c-0.158-0.219-0.198-0.521-0.113-0.902c0.085-0.387,0.253-0.697,0.502-0.912C33.56,23.524,33.816,23.416,34.096,23.397z
				 M25.411,23.441h0.591c0,0,0.072,1.41,0.074,1.434c0.023-0.053,0.043-0.096,0.045-0.1l0.648-1.334h0.541
				c0,0,0.051,1.396,0.051,1.402c0.016-0.027,0.738-1.402,0.738-1.402h0.585l-1.289,2.381h-0.531c0,0-0.052-1.291-0.054-1.365
				c-0.22,0.449-0.665,1.365-0.665,1.365h-0.546L25.411,23.441z M11.548,23.892c-0.137,0.006-0.26,0.056-0.377,0.147
				c-0.092,0.072-0.154,0.174-0.203,0.285h0.978c0.001-0.02,0.004-0.042,0.004-0.055c0-0.093-0.017-0.16-0.044-0.209
				c-0.07-0.115-0.173-0.169-0.328-0.169C11.57,23.892,11.558,23.892,11.548,23.892z M14.133,23.892
				c-0.136,0.006-0.261,0.056-0.378,0.147c-0.091,0.072-0.152,0.174-0.203,0.285h0.979c0.002-0.02,0.004-0.042,0.004-0.055
				c0-0.093-0.014-0.16-0.045-0.209c-0.014-0.022-0.031-0.047-0.049-0.065c-0.065-0.067-0.158-0.104-0.278-0.104
				C14.154,23.892,14.142,23.892,14.133,23.892z M34.128,23.892c-0.141,0.006-0.273,0.052-0.393,0.147
				c-0.091,0.072-0.152,0.174-0.203,0.285h0.973c0-0.02,0.005-0.042,0.005-0.055c0-0.093-0.015-0.16-0.046-0.209
				c-0.066-0.113-0.173-0.167-0.326-0.169C34.132,23.892,34.132,23.892,34.128,23.892z M21.13,23.9
				c-0.133,0.016-0.254,0.077-0.369,0.18c-0.137,0.123-0.235,0.318-0.293,0.576c-0.022,0.107-0.035,0.199-0.035,0.281
				c0,0.113,0.022,0.203,0.064,0.268c0.013,0.02,0.027,0.035,0.041,0.053c0.07,0.072,0.169,0.113,0.293,0.113
				c0.159,0,0.303-0.062,0.437-0.185c0.138-0.124,0.233-0.321,0.292-0.586c0.055-0.241,0.047-0.422-0.029-0.534
				c-0.073-0.113-0.18-0.166-0.326-0.166C21.178,23.9,21.154,23.898,21.13,23.9z M30.094,24.772
				c-0.134,0.033-0.286,0.065-0.486,0.094c-0.149,0.021-0.256,0.043-0.318,0.067c-0.054,0.022-0.097,0.055-0.132,0.094
				c-0.037,0.042-0.06,0.083-0.071,0.13c-0.002,0.02-0.003,0.04-0.003,0.055v0.006c0,0.004-0.002,0.012,0,0.014
				c0,0.008,0.001,0.019,0.003,0.027c0.002,0,0.004,0.008,0.006,0.008c0.001,0.002,0.003,0.012,0.005,0.015
				c0.001,0.004,0.008,0.01,0.01,0.015c0.004,0.007,0.01,0.014,0.016,0.02c0.038,0.045,0.117,0.063,0.231,0.063
				c0.127,0,0.247-0.022,0.358-0.076c0.109-0.056,0.198-0.134,0.264-0.229C30.022,25.004,30.061,24.902,30.094,24.772z"/>
			<g id="g80_1_" transform="matrix(1.705222,0,0,1.705222,359.45027,563.90874)">
				<path id="path82_1_" fill-opacity="0.9412" d="M-190.771-316.683c0,0-0.002,0-0.003,0c0.091,0.001,0.149,0.031,0.19,0.098
					c0.018,0.029,0.027,0.069,0.027,0.123c0,0.01-0.002,0.022-0.003,0.032h0.004c0-0.01,0.002-0.022,0.002-0.032
					c0-0.053-0.009-0.094-0.026-0.123C-190.62-316.653-190.68-316.683-190.771-316.683z"/>
			</g>
			<path fill="#333333" d="M44.27,29.653h-1.824c-1.808-0.158-3.194-0.829-4.012-1.938c-0.151-0.205-0.284-0.433-0.405-0.691
				l-0.008-0.018c-0.068-0.164-0.133-0.332-0.199-0.5l0.74-0.289c0.062,0.16,0.125,0.321,0.189,0.478
				c0.098,0.21,0.205,0.391,0.322,0.552c0.685,0.93,1.836,1.473,3.424,1.615h1.742c0.541-0.043,1.112-0.125,1.698-0.238
				c1.032-0.203,2.13-0.515,3.265-0.927c0.881-0.321,1.775-0.699,2.655-1.122c2.032-0.974,4.052-2.196,6.001-3.632
				c0.638-0.47,1.275-0.971,1.897-1.487c0.55-0.459,1.087-0.932,1.597-1.406c1.367-1.316,2.451-2.707,3.049-3.908
				c0.588-1.18,0.687-2.123,0.281-2.658c-0.24-0.32-0.666-0.506-1.264-0.551l-1.05-0.081l0.843-0.631
				c3.012-2.262,4.717-4.937,4.144-6.507c-0.165-0.457-0.536-0.801-1.076-0.994c-0.247-0.09-0.534-0.148-0.854-0.177h-0.928
				c-1.106,0.083-3.017,0.483-4.776,1.343l-0.348-0.711c1.537-0.754,3.531-1.314,5.083-1.425l0.027-0.002l0.993,0.002
				c0.393,0.034,0.755,0.106,1.072,0.222c0.769,0.278,1.306,0.785,1.553,1.47c0.653,1.792-0.837,4.495-3.735,6.882
				c0.398,0.147,0.718,0.373,0.95,0.682c0.605,0.797,0.534,2.007-0.205,3.488c-0.646,1.301-1.757,2.73-3.212,4.133
				c-0.525,0.49-1.074,0.973-1.637,1.439c-0.633,0.529-1.283,1.037-1.933,1.515c-1.991,1.466-4.054,2.716-6.13,3.711
				c-0.902,0.433-1.82,0.819-2.727,1.151c-1.172,0.428-2.311,0.751-3.384,0.961c-0.622,0.121-1.229,0.204-1.804,0.251H44.27z"/>
		</g>
	</g>
</g>
</svg>
