<?xml version="1.0" encoding="utf-8"?>
<!-- Generator: Adobe Illustrator 16.0.0, SVG Export Plug-In . SVG Version: 6.00 Build 0)  -->
<!DOCTYPE svg PUBLIC "-//W3C//DTD SVG 1.1//EN" "http://www.w3.org/Graphics/SVG/1.1/DTD/svg11.dtd">
<svg version="1.1" id="Layer_1" xmlns="http://www.w3.org/2000/svg" xmlns:xlink="http://www.w3.org/1999/xlink" x="0px" y="0px"
	 width="154.833px" height="55.833px" viewBox="0 0 154.833 55.833" enable-background="new 0 0 154.833 55.833"
	 xml:space="preserve">
<g>
	<linearGradient id="SVGID_1_" gradientUnits="userSpaceOnUse" x1="11.9316" y1="40.3232" x2="47.9795" y2="40.3232">
		<stop  offset="0.004" style="stop-color:#FFB600"/>
		<stop  offset="1" style="stop-color:#FF386A"/>
	</linearGradient>
	<polygon fill="url(#SVGID_1_)" points="41.979,37.317 35.963,40.324 29.952,43.327 23.953,40.324 17.942,37.317 17.942,31.311 
		17.942,25.305 11.932,28.307 11.932,34.312 11.932,40.324 11.932,46.333 17.942,49.336 23.953,52.337 29.952,55.342 35.963,52.337 
		41.979,49.336 47.979,46.333 47.979,40.324 47.979,34.312 47.979,28.307 41.979,25.305 41.979,31.311 	"/>
	<linearGradient id="SVGID_2_" gradientUnits="userSpaceOnUse" x1="-0.0801" y1="16.2886" x2="59.998" y2="16.2886">
		<stop  offset="0.004" style="stop-color:#FFB600"/>
		<stop  offset="1" style="stop-color:#FF386A"/>
	</linearGradient>
	<polygon fill="url(#SVGID_2_)" points="53.99,1.267 47.984,4.271 47.979,4.271 41.979,7.277 41.979,13.282 35.963,10.281 
		29.952,7.277 23.953,10.281 17.942,13.282 17.942,7.277 11.932,4.271 11.932,4.271 5.92,1.267 -0.08,4.271 5.92,7.277 5.92,7.277 
		5.92,13.282 11.932,16.284 11.932,22.296 17.942,25.305 23.953,28.307 29.952,31.311 35.963,28.307 41.979,25.305 47.979,22.296 
		47.979,16.284 53.99,13.282 53.99,7.277 59.998,4.271 	"/>
	<g>
		<linearGradient id="SVGID_3_" gradientUnits="userSpaceOnUse" x1="69.918" y1="31.7832" x2="131.6974" y2="31.7832">
			<stop  offset="0.004" style="stop-color:#FFB600"/>
			<stop  offset="1" style="stop-color:#FF386A"/>
		</linearGradient>
		<path fill="url(#SVGID_3_)" d="M82.371,24.679c-0.757-0.881-1.668-1.553-2.723-2.039c-1.06-0.475-2.199-0.725-3.426-0.725
			c-1.229,0-2.365,0.25-3.408,0.725c-1.048,0.486-1.949,1.158-2.705,2.039c-0.758,0.881-1.355,1.924-1.785,3.143
			c-0.436,1.211-0.654,2.539-0.654,3.984c0,1.448,0.219,2.772,0.654,3.985c0.43,1.213,1.027,2.257,1.785,3.112
			c0.756,0.871,1.657,1.547,2.705,2.025c1.043,0.484,2.18,0.723,3.408,0.723c1.227,0,2.366-0.238,3.426-0.723
			c1.055-0.479,1.966-1.154,2.723-2.025c0.76-0.855,1.354-1.899,1.785-3.112c0.431-1.213,0.648-2.537,0.648-3.985
			c0-1.445-0.218-2.773-0.648-3.984C83.725,26.603,83.131,25.56,82.371,24.679z M79.54,33.712c-0.146,0.62-0.364,1.168-0.652,1.636
			c-0.286,0.475-0.655,0.849-1.095,1.124c-0.451,0.283-0.972,0.419-1.57,0.419c-1.203,0-2.088-0.479-2.652-1.433
			c-0.567-0.957-0.848-2.173-0.848-3.652c0-1.477,0.28-2.697,0.848-3.672c0.564-0.965,1.449-1.447,2.652-1.447
			c1.204,0,2.09,0.488,2.665,1.47c0.579,0.979,0.866,2.194,0.866,3.649C79.754,32.462,79.687,33.097,79.54,33.712z"/>
		<linearGradient id="SVGID_4_" gradientUnits="userSpaceOnUse" x1="65.1914" y1="31.8237" x2="131.5269" y2="31.8237">
			<stop  offset="0.004" style="stop-color:#FFB600"/>
			<stop  offset="1" style="stop-color:#FF386A"/>
		</linearGradient>
		<polygon fill="url(#SVGID_4_)" points="121,42 126,42 126,35.592 126,30.755 126,24.137 121,21.647 		"/>
		<linearGradient id="SVGID_5_" gradientUnits="userSpaceOnUse" x1="71.7393" y1="28.5874" x2="128.8081" y2="28.5874">
			<stop  offset="0.004" style="stop-color:#FFB600"/>
			<stop  offset="1" style="stop-color:#FF386A"/>
		</linearGradient>
		<path fill="url(#SVGID_5_)" d="M109,42V18.335V18.3v-0.633l-5-2.492v8.079c0-0.344-0.281-0.651-0.877-0.899
			c-0.688-0.292-1.131-0.439-1.974-0.439c-1.179,0-2.063,0.235-2.981,0.71c-0.913,0.47-1.598,1.13-2.223,1.981
			c-0.626,0.854-1.062,1.871-1.387,3.049c-0.326,1.178-0.465,2.476-0.465,3.894c0,1.785,0.197,3.311,0.584,4.57
			c0.381,1.261,0.92,2.301,1.591,3.132c0.674,0.832,1.458,1.441,2.35,1.824c0.892,0.385,1.839,0.576,2.85,0.576
			c0.912,0,1.05-0.166,1.692-0.488c0.554-0.283,0.84-0.602,0.84-0.948V42H109z M103.607,36.532
			c-0.461,0.285-0.751,0.432-1.517,0.432c-0.99,0-1.616-0.432-2.206-1.298c-0.586-0.863-0.801-2.271-0.801-4.219
			c0-3.224,0.384-4.835,2.355-4.835c1.336,0,2.561,0.485,2.561,1.406V35.6C104,35.972,103.982,36.289,103.607,36.532z"/>
		<linearGradient id="SVGID_6_" gradientUnits="userSpaceOnUse" x1="65.7856" y1="31.4224" x2="130.2258" y2="31.4224">
			<stop  offset="0.004" style="stop-color:#FFB600"/>
			<stop  offset="1" style="stop-color:#FF386A"/>
		</linearGradient>
		<path fill="url(#SVGID_6_)" d="M152.693,24.245c-1.126-1.547-2.701-2.33-5.107-2.33c-1.007,0-1.972,0.167-2.723,0.491
			c-0.759,0.323-1.863,0.72-1.863,1.173v-2.734l-6,2.489v7.421v4.837V42h6V30.878c0-1.623,0.459-2.732,1.022-3.349
			c0.562-0.608,1.45-0.917,2.481-0.917c1.033,0,1.471,0.313,2.025,0.939c0.553,0.619,0.471,1.777,0.471,3.461V42h5V30.581
			C154,27.912,153.825,25.799,152.693,24.245z"/>
	</g>
</g>
</svg>
