<?xml version="1.0" encoding="utf-8"?>
<!-- Generator: Adobe Illustrator 16.0.0, SVG Export Plug-In . SVG Version: 6.00 Build 0)  -->
<!DOCTYPE svg PUBLIC "-//W3C//DTD SVG 1.1//EN" "http://www.w3.org/Graphics/SVG/1.1/DTD/svg11.dtd">
<svg version="1.1" id="Layer_1" xmlns="http://www.w3.org/2000/svg" xmlns:xlink="http://www.w3.org/1999/xlink" x="0px" y="0px"
	 width="111.667px" height="131.333px" viewBox="0 0 111.667 131.333" enable-background="new 0 0 111.667 131.333"
	 xml:space="preserve">
<g>
	<linearGradient id="SVGID_1_" gradientUnits="userSpaceOnUse" x1="49.7471" y1="49.4766" x2="96.3906" y2="49.4766">
		<stop  offset="0.004" style="stop-color:#FFB600"/>
		<stop  offset="1" style="stop-color:#FF386A"/>
	</linearGradient>
	<path fill="url(#SVGID_1_)" d="M86.154,72.901c-2.829,0-5.507-1.12-7.541-3.154c-2.781-2.896-3.783-6.966-2.656-10.695
		L63.561,46.653c-1.028,0.342-2.102,0.515-3.193,0.515c-2.796,0-5.464-1.128-7.511-3.177c-2.853-2.972-3.832-7.177-2.563-10.982
		l0.25-0.75L57.156,39c0.488,0.487,1.268,0.49,1.762-0.004l3.484-3.717c0.521-0.523,0.521-1.266,0.011-1.776l-6.601-6.602
		l0.722-0.256c1.108-0.394,2.27-0.594,3.45-0.594c2.829,0,5.507,1.121,7.541,3.156c2.782,2.896,3.783,6.966,2.655,10.695
		l12.397,12.399c1.028-0.342,2.101-0.515,3.192-0.515c2.795,0,5.463,1.128,7.511,3.176c2.853,2.971,3.832,7.177,2.563,10.984
		l-0.247,0.742l-6.613-6.613c-0.494-0.494-1.27-0.494-1.764,0l-3.491,3.606c-0.252,0.252-0.388,0.566-0.388,0.888
		s0.136,0.636,0.383,0.882l6.601,6.602l-0.722,0.255C88.495,72.702,87.334,72.901,86.154,72.901z M63.811,45.537L77.06,58.788
		l-0.095,0.283c-1.154,3.464-0.258,7.296,2.339,10c1.844,1.845,4.279,2.864,6.851,2.864c0.808,0,1.605-0.103,2.38-0.307
		l-5.493-5.494c-0.893-0.893-0.893-2.239,0-3.132l3.491-3.606c0.869-0.87,2.276-0.864,3.136-0.006l5.481,5.482
		c0.793-3.253-0.152-6.729-2.559-9.234c-1.858-1.858-4.283-2.886-6.82-2.886c-1.082,0-2.143,0.188-3.153,0.559l-0.289,0.106
		l-13.25-13.251l0.095-0.283c1.155-3.464,0.26-7.295-2.338-10c-1.845-1.845-4.28-2.865-6.851-2.865
		c-0.808,0-1.605,0.104-2.381,0.308l5.493,5.494c0.892,0.892,0.892,2.238,0,3.131l-3.485,3.718c-0.883,0.88-2.284,0.869-3.142,0.011
		l-5.483-5.589c-0.789,3.25,0.157,6.72,2.561,9.225c1.857,1.859,4.282,2.887,6.82,2.887c1.083,0,2.144-0.188,3.154-0.559
		L63.811,45.537z"/>
	<linearGradient id="SVGID_2_" gradientUnits="userSpaceOnUse" x1="19.1025" y1="79.4282" x2="93.8223" y2="79.4282">
		<stop  offset="0.004" style="stop-color:#FFB600"/>
		<stop  offset="1" style="stop-color:#FF386A"/>
	</linearGradient>
	<path fill="url(#SVGID_2_)" d="M87.163,100.306h-26.04c-1.371,0-2.638-0.38-3.764-1.129L29.971,80.028H19.103V58.55h19.179
		c1.371,0,2.638,0.38,3.764,1.129l27.394,18.768c3.002,2.003,3.794,6.12,1.761,9.174c-1.228,1.84-3.201,2.895-5.414,2.895
		c-0.786,0-1.533-0.133-2.161-0.384l-0.379-0.181c-0.399-0.188-0.853-0.401-1.246-0.697l-10.007-6.864l-5.469-3.608
		c-0.036-0.014-0.142-0.036-0.257-0.036c-0.248,0-0.48,0.104-0.606,0.272c-0.084,0.186-0.023,0.631,0.253,0.839l0.327,0.216
		l3.981,2.927l10.949,7.803c1.375,0.917,3.018,1.426,4.614,1.426c2.732,0,5.285-1.317,6.83-3.523
		c0.337-0.452,0.562-0.902,0.778-1.337l0.134-0.267h13.752c3.669,0,6.543,2.874,6.543,6.543
		C93.822,97.319,90.835,100.306,87.163,100.306z M20.069,79.062h10.206l27.628,19.316c0.956,0.636,2.042,0.962,3.22,0.962h26.04
		c3.086,0,5.692-2.607,5.692-5.694c0-3.127-2.449-5.578-5.576-5.578H74.124c-0.193,0.381-0.419,0.793-0.727,1.205
		c-1.716,2.452-4.565,3.923-7.612,3.923c-1.785,0-3.618-0.567-5.162-1.597l-10.968-7.816l-4.3-3.138
		c-0.644-0.484-0.864-1.434-0.514-2.134c0.522-0.718,1.484-0.904,2.162-0.566l5.527,3.643l10.031,6.881
		c0.331,0.248,0.719,0.431,1.094,0.607l0.363,0.174c0.471,0.187,1.111,0.299,1.766,0.299c1.885,0,3.565-0.898,4.609-2.465
		c1.739-2.611,1.067-6.127-1.498-7.838L41.504,60.48c-0.959-0.639-2.045-0.964-3.223-0.964H20.069V79.062z"/>
</g>
</svg>
