<?xml version="1.0" encoding="utf-8"?>
<!-- Generator: Adobe Illustrator 16.0.0, SVG Export Plug-In . SVG Version: 6.00 Build 0)  -->
<!DOCTYPE svg PUBLIC "-//W3C//DTD SVG 1.1//EN" "http://www.w3.org/Graphics/SVG/1.1/DTD/svg11.dtd">
<svg version="1.1" id="Layer_1" xmlns="http://www.w3.org/2000/svg" xmlns:xlink="http://www.w3.org/1999/xlink" x="0px" y="0px"
	 width="736.667px" height="108px" viewBox="0 0 736.667 108" enable-background="new 0 0 736.667 108" xml:space="preserve">
<g>
	<g>
		<linearGradient id="SVGID_1_" gradientUnits="userSpaceOnUse" x1="32.5625" y1="50.2988" x2="716.9473" y2="50.2988">
			<stop  offset="0.004" style="stop-color:#FFB600"/>
			<stop  offset="1" style="stop-color:#FF386A"/>
		</linearGradient>
		<path fill="url(#SVGID_1_)" d="M11.518,50.298c0-2.704,0.454-5.156,1.362-7.354c0.906-2.196,2.171-4.066,3.796-5.61
			c1.625-1.545,3.548-2.73,5.777-3.556c2.229-0.828,4.665-1.244,7.306-1.244c2.643,0,5.08,0.416,7.307,1.244
			c2.229,0.825,4.153,2.011,5.777,3.556c1.625,1.544,2.889,3.414,3.797,5.61c0.907,2.197,1.362,4.649,1.362,7.354
			c0,2.706-0.455,5.158-1.362,7.354c-0.908,2.197-2.172,4.067-3.797,5.611c-1.624,1.545-3.548,2.729-5.777,3.557
			c-2.228,0.828-4.665,1.244-7.307,1.244c-2.642,0-5.077-0.416-7.306-1.244s-4.152-2.012-5.777-3.557
			c-1.625-1.544-2.89-3.414-3.796-5.611C11.972,55.456,11.518,53.004,11.518,50.298z M19.255,50.298
			c0,1.594,0.247,3.048,0.738,4.371c0.495,1.32,1.204,2.465,2.125,3.438c0.925,0.97,2.031,1.727,3.319,2.268
			c1.291,0.541,2.73,0.812,4.321,0.812c1.593,0,3.032-0.271,4.322-0.812c1.288-0.541,2.395-1.298,3.32-2.268
			c0.922-0.973,1.628-2.117,2.124-3.438c0.493-1.323,0.74-2.777,0.74-4.371c0-1.557-0.247-3.008-0.74-4.346
			c-0.496-1.337-1.202-2.49-2.124-3.461c-0.925-0.971-2.032-1.728-3.32-2.27c-1.29-0.541-2.729-0.811-4.322-0.811
			c-1.591,0-3.03,0.27-4.321,0.811c-1.288,0.542-2.395,1.299-3.319,2.27c-0.921,0.971-1.63,2.124-2.125,3.461
			C19.502,47.29,19.255,48.741,19.255,50.298z"/>
		<linearGradient id="SVGID_2_" gradientUnits="userSpaceOnUse" x1="32.5625" y1="50.2983" x2="716.9051" y2="50.2983">
			<stop  offset="0.004" style="stop-color:#FFB600"/>
			<stop  offset="1" style="stop-color:#FF386A"/>
		</linearGradient>
		<path fill="url(#SVGID_2_)" d="M62.516,33.395h12.559c1.749,0,3.405,0.159,4.966,0.477c1.56,0.32,2.921,0.869,4.083,1.648
			c1.161,0.78,2.085,1.831,2.769,3.152c0.685,1.319,1.027,2.983,1.027,4.989c0,1.975-0.319,3.629-0.956,4.967
			c-0.637,1.336-1.511,2.404-2.625,3.197c-1.115,0.797-2.435,1.362-3.964,1.696c-1.527,0.333-3.184,0.503-4.966,0.503h-5.443v13.178
			h-7.449V33.395z M69.965,47.72h4.964c0.671,0,1.315-0.062,1.936-0.191c0.623-0.125,1.179-0.341,1.67-0.643
			c0.494-0.304,0.893-0.717,1.195-1.244c0.303-0.525,0.453-1.185,0.453-1.98c0-0.857-0.199-1.552-0.597-2.077
			c-0.398-0.525-0.906-0.931-1.527-1.22c-0.622-0.285-1.313-0.468-2.078-0.546c-0.763-0.081-1.498-0.12-2.197-0.12h-3.819V47.72z"/>
		<linearGradient id="SVGID_3_" gradientUnits="userSpaceOnUse" x1="32.5684" y1="50.2983" x2="716.8632" y2="50.2983">
			<stop  offset="0.004" style="stop-color:#FFB600"/>
			<stop  offset="1" style="stop-color:#FF386A"/>
		</linearGradient>
		<path fill="url(#SVGID_3_)" d="M102.34,33.395h22.966v6.876h-15.519v6.305h14.66v6.873h-14.66v6.877h16.378v6.877H102.34V33.395z"
			/>
		<linearGradient id="SVGID_4_" gradientUnits="userSpaceOnUse" x1="32.5498" y1="50.2983" x2="716.954" y2="50.2983">
			<stop  offset="0.004" style="stop-color:#FFB600"/>
			<stop  offset="1" style="stop-color:#FF386A"/>
		</linearGradient>
		<path fill="url(#SVGID_4_)" d="M141.588,33.395h10.124l14.373,23.493h0.098V33.395h7.449v33.808h-9.741l-14.756-24.066h-0.094
			v24.066h-7.453V33.395z"/>
		<linearGradient id="SVGID_5_" gradientUnits="userSpaceOnUse" x1="32.5669" y1="50.2983" x2="716.892" y2="50.2983">
			<stop  offset="0.004" style="stop-color:#FFB600"/>
			<stop  offset="1" style="stop-color:#FF386A"/>
		</linearGradient>
		<path fill="url(#SVGID_5_)" d="M213.549,33.395h11.175c2.706,0,5.274,0.304,7.71,0.907c2.436,0.604,4.561,1.586,6.375,2.939
			c1.813,1.352,3.254,3.111,4.322,5.272c1.066,2.166,1.598,4.792,1.598,7.88c0,2.739-0.517,5.15-1.55,7.234
			c-1.036,2.085-2.428,3.836-4.18,5.252c-1.748,1.418-3.772,2.492-6.064,3.225c-2.292,0.733-4.694,1.098-7.209,1.098h-12.177V33.395
			z M220.998,60.325h3.867c1.719,0,3.32-0.174,4.799-0.523c1.48-0.35,2.763-0.933,3.846-1.744c1.08-0.811,1.934-1.876,2.554-3.2
			c0.621-1.319,0.932-2.936,0.932-4.845c0-1.656-0.311-3.097-0.932-4.323c-0.62-1.224-1.457-2.235-2.506-3.032
			c-1.052-0.793-2.285-1.391-3.702-1.79c-1.417-0.396-2.905-0.597-4.463-0.597h-4.395V60.325z"/>
		<linearGradient id="SVGID_6_" gradientUnits="userSpaceOnUse" x1="32.5679" y1="50.2983" x2="716.8893" y2="50.2983">
			<stop  offset="0.004" style="stop-color:#FFB600"/>
			<stop  offset="1" style="stop-color:#FF386A"/>
		</linearGradient>
		<path fill="url(#SVGID_6_)" d="M270.373,33.395h6.159l14.707,33.808h-8.403l-2.915-7.162h-13.129l-2.818,7.162h-8.213
			L270.373,33.395z M273.237,43.231l-4.106,10.504h8.262L273.237,43.231z"/>
		<linearGradient id="SVGID_7_" gradientUnits="userSpaceOnUse" x1="32.5688" y1="50.2983" x2="716.8951" y2="50.2983">
			<stop  offset="0.004" style="stop-color:#FFB600"/>
			<stop  offset="1" style="stop-color:#FF386A"/>
		</linearGradient>
		<path fill="url(#SVGID_7_)" d="M306.233,39.985h-9.646v-6.591h26.74v6.591h-9.644v27.217h-7.451V39.985z"/>
		<linearGradient id="SVGID_8_" gradientUnits="userSpaceOnUse" x1="32.563" y1="50.2983" x2="716.9033" y2="50.2983">
			<stop  offset="0.004" style="stop-color:#FFB600"/>
			<stop  offset="1" style="stop-color:#FF386A"/>
		</linearGradient>
		<path fill="url(#SVGID_8_)" d="M343.286,33.395h6.162l14.708,33.808h-8.405l-2.914-7.162h-13.13l-2.819,7.162h-8.211
			L343.286,33.395z M346.154,43.231l-4.107,10.504h8.26L346.154,43.231z"/>
		<linearGradient id="SVGID_9_" gradientUnits="userSpaceOnUse" x1="32.522" y1="50.2983" x2="716.9387" y2="50.2983">
			<stop  offset="0.004" style="stop-color:#FFB600"/>
			<stop  offset="1" style="stop-color:#FF386A"/>
		</linearGradient>
		<path fill="url(#SVGID_9_)" d="M400.492,33.395h7.45v33.808h-7.45V33.395z"/>
		<linearGradient id="SVGID_10_" gradientUnits="userSpaceOnUse" x1="32.562" y1="50.2983" x2="716.9036" y2="50.2983">
			<stop  offset="0.004" style="stop-color:#FFB600"/>
			<stop  offset="1" style="stop-color:#FF386A"/>
		</linearGradient>
		<path fill="url(#SVGID_10_)" d="M424.177,33.395H434.3l14.374,23.493h0.093V33.395h7.451v33.808h-9.741l-14.755-24.066h-0.096
			v24.066h-7.449V33.395z"/>
		<linearGradient id="SVGID_11_" gradientUnits="userSpaceOnUse" x1="32.6313" y1="50.2983" x2="716.8686" y2="50.2983">
			<stop  offset="0.004" style="stop-color:#FFB600"/>
			<stop  offset="1" style="stop-color:#FF386A"/>
		</linearGradient>
		<path fill="url(#SVGID_11_)" d="M472.453,33.395h7.448v33.808h-7.448V33.395z"/>
		<linearGradient id="SVGID_12_" gradientUnits="userSpaceOnUse" x1="32.5391" y1="50.2983" x2="716.9153" y2="50.2983">
			<stop  offset="0.004" style="stop-color:#FFB600"/>
			<stop  offset="1" style="stop-color:#FF386A"/>
		</linearGradient>
		<path fill="url(#SVGID_12_)" d="M502.679,39.985h-9.647v-6.591h26.742v6.591h-9.646v27.217h-7.448V39.985z"/>
		<linearGradient id="SVGID_13_" gradientUnits="userSpaceOnUse" x1="32.5391" y1="50.2983" x2="716.9109" y2="50.2983">
			<stop  offset="0.004" style="stop-color:#FFB600"/>
			<stop  offset="1" style="stop-color:#FF386A"/>
		</linearGradient>
		<path fill="url(#SVGID_13_)" d="M532.902,33.395h7.45v33.808h-7.45V33.395z"/>
		<linearGradient id="SVGID_14_" gradientUnits="userSpaceOnUse" x1="32.5859" y1="50.2983" x2="716.8979" y2="50.2983">
			<stop  offset="0.004" style="stop-color:#FFB600"/>
			<stop  offset="1" style="stop-color:#FF386A"/>
		</linearGradient>
		<path fill="url(#SVGID_14_)" d="M567.714,33.395h6.158l14.707,33.808h-8.403l-2.912-7.162h-13.131l-2.819,7.162h-8.212
			L567.714,33.395z M570.577,43.231l-4.106,10.504h8.262L570.577,43.231z"/>
		<linearGradient id="SVGID_15_" gradientUnits="userSpaceOnUse" x1="32.5645" y1="50.2983" x2="716.9032" y2="50.2983">
			<stop  offset="0.004" style="stop-color:#FFB600"/>
			<stop  offset="1" style="stop-color:#FF386A"/>
		</linearGradient>
		<path fill="url(#SVGID_15_)" d="M603.573,39.985h-9.646v-6.591h26.74v6.591h-9.644v27.217h-7.451V39.985z"/>
		<linearGradient id="SVGID_16_" gradientUnits="userSpaceOnUse" x1="32.5747" y1="50.2983" x2="716.9017" y2="50.2983">
			<stop  offset="0.004" style="stop-color:#FFB600"/>
			<stop  offset="1" style="stop-color:#FF386A"/>
		</linearGradient>
		<path fill="url(#SVGID_16_)" d="M633.8,33.395h7.449v33.808H633.8V33.395z"/>
		<linearGradient id="SVGID_17_" gradientUnits="userSpaceOnUse" x1="32.5298" y1="50.2983" x2="716.9092" y2="50.2983">
			<stop  offset="0.004" style="stop-color:#FFB600"/>
			<stop  offset="1" style="stop-color:#FF386A"/>
		</linearGradient>
		<path fill="url(#SVGID_17_)" d="M654.141,33.395h8.499l8.357,22.155h0.097l8.499-22.155h7.975l-13.945,33.808h-5.968
			L654.141,33.395z"/>
		<linearGradient id="SVGID_18_" gradientUnits="userSpaceOnUse" x1="32.5273" y1="50.2983" x2="716.9062" y2="50.2983">
			<stop  offset="0.004" style="stop-color:#FFB600"/>
			<stop  offset="1" style="stop-color:#FF386A"/>
		</linearGradient>
		<path fill="url(#SVGID_18_)" d="M700.841,33.395h22.97v6.876H708.29v6.305h14.659v6.873H708.29v6.877h16.38v6.877h-23.829V33.395z
			"/>
	</g>
</g>
</svg>
