<?xml version="1.0" encoding="utf-8"?>
<!-- Generator: Adobe Illustrator 16.0.0, SVG Export Plug-In . SVG Version: 6.00 Build 0)  -->
<!DOCTYPE svg PUBLIC "-//W3C//DTD SVG 1.1//EN" "http://www.w3.org/Graphics/SVG/1.1/DTD/svg11.dtd">
<svg version="1.1" id="Layer_1" xmlns="http://www.w3.org/2000/svg" xmlns:xlink="http://www.w3.org/1999/xlink" x="0px" y="0px"
	 width="151px" height="41.667px" viewBox="0 0 151 41.667" enable-background="new 0 0 151 41.667" xml:space="preserve">
<g>
	<linearGradient id="SVGID_1_" gradientUnits="userSpaceOnUse" x1="29.5488" y1="22.3994" x2="122.5331" y2="21.3996">
		<stop  offset="0.004" style="stop-color:#FFB600"/>
		<stop  offset="1" style="stop-color:#FF386A"/>
	</linearGradient>
	<path fill="url(#SVGID_1_)" d="M27.717,26.882c-0.648,0-1.242-0.112-1.781-0.336c-0.541-0.224-1.009-0.534-1.404-0.93
		c-0.396-0.396-0.705-0.868-0.924-1.416c-0.221-0.548-0.33-1.142-0.33-1.782c0-0.64,0.109-1.234,0.33-1.782
		c0.219-0.548,0.527-1.02,0.924-1.416c0.396-0.396,0.863-0.706,1.404-0.93c0.539-0.224,1.133-0.336,1.781-0.336
		s1.242,0.112,1.782,0.336s1.008,0.534,1.403,0.93c0.396,0.396,0.705,0.868,0.924,1.416c0.221,0.548,0.33,1.143,0.33,1.782
		c0,0.641-0.109,1.234-0.33,1.782c-0.219,0.548-0.527,1.02-0.924,1.416c-0.396,0.396-0.863,0.706-1.403,0.93
		S28.365,26.882,27.717,26.882z M27.717,25.947c0.496,0,0.95-0.092,1.362-0.276c0.411-0.184,0.766-0.436,1.062-0.756
		s0.526-0.694,0.69-1.122c0.163-0.428,0.245-0.886,0.245-1.374s-0.082-0.946-0.245-1.374c-0.164-0.428-0.395-0.802-0.69-1.122
		c-0.296-0.319-0.65-0.571-1.062-0.756c-0.412-0.184-0.866-0.276-1.362-0.276s-0.95,0.093-1.361,0.276
		c-0.412,0.185-0.767,0.437-1.062,0.756c-0.296,0.32-0.526,0.694-0.689,1.122c-0.164,0.428-0.246,0.886-0.246,1.374
		s0.082,0.946,0.246,1.374c0.163,0.428,0.394,0.802,0.689,1.122s0.65,0.572,1.062,0.756C26.767,25.855,27.221,25.947,27.717,25.947z
		"/>
	<linearGradient id="SVGID_2_" gradientUnits="userSpaceOnUse" x1="29.582" y1="25.2183" x2="122.5671" y2="24.2184">
		<stop  offset="0.004" style="stop-color:#FFB600"/>
		<stop  offset="1" style="stop-color:#FF386A"/>
	</linearGradient>
	<path fill="url(#SVGID_2_)" d="M33.561,21.05h0.936v0.816h0.024c0.257-0.304,0.554-0.54,0.894-0.708
		c0.341-0.168,0.715-0.252,1.123-0.252c0.439,0,0.842,0.074,1.205,0.222c0.364,0.148,0.674,0.354,0.931,0.618
		c0.256,0.264,0.456,0.576,0.6,0.936c0.144,0.36,0.216,0.752,0.216,1.177c0,0.424-0.072,0.815-0.216,1.176
		c-0.144,0.359-0.342,0.672-0.594,0.936c-0.252,0.265-0.55,0.471-0.894,0.618c-0.345,0.148-0.713,0.222-1.104,0.222
		c-0.504,0-0.946-0.109-1.326-0.329c-0.38-0.221-0.657-0.49-0.834-0.811h-0.024v3.732h-0.936V21.05z M34.496,23.859
		c0,0.296,0.047,0.569,0.139,0.821s0.227,0.473,0.402,0.66c0.176,0.188,0.385,0.336,0.629,0.444
		c0.244,0.107,0.519,0.162,0.822,0.162c0.305,0,0.578-0.055,0.822-0.162c0.244-0.108,0.454-0.256,0.631-0.444
		c0.176-0.188,0.309-0.408,0.401-0.66c0.092-0.252,0.138-0.525,0.138-0.821s-0.046-0.57-0.138-0.822
		c-0.093-0.252-0.226-0.472-0.401-0.66c-0.177-0.188-0.387-0.336-0.631-0.444c-0.244-0.107-0.518-0.162-0.822-0.162
		c-0.304,0-0.578,0.055-0.822,0.162c-0.244,0.108-0.453,0.257-0.629,0.444c-0.176,0.188-0.311,0.408-0.402,0.66
		S34.496,23.563,34.496,23.859z"/>
	<linearGradient id="SVGID_3_" gradientUnits="userSpaceOnUse" x1="29.5693" y1="24.0083" x2="122.5528" y2="23.0085">
		<stop  offset="0.004" style="stop-color:#FFB600"/>
		<stop  offset="1" style="stop-color:#FF386A"/>
	</linearGradient>
	<path fill="url(#SVGID_3_)" d="M45.957,25.647c-0.336,0.432-0.705,0.733-1.104,0.905s-0.864,0.258-1.392,0.258
		c-0.44,0-0.836-0.077-1.188-0.233c-0.354-0.156-0.65-0.366-0.895-0.63c-0.244-0.265-0.432-0.576-0.564-0.937
		c-0.132-0.359-0.197-0.744-0.197-1.151c0-0.433,0.072-0.83,0.215-1.194c0.145-0.364,0.345-0.676,0.601-0.937
		c0.256-0.26,0.56-0.462,0.912-0.605c0.353-0.145,0.735-0.216,1.151-0.216c0.393,0,0.752,0.065,1.08,0.198
		c0.328,0.132,0.61,0.323,0.847,0.575c0.235,0.252,0.418,0.561,0.546,0.925c0.128,0.363,0.191,0.777,0.191,1.241v0.301h-4.535
		c0.016,0.239,0.074,0.47,0.174,0.689s0.23,0.412,0.391,0.576c0.159,0.164,0.348,0.294,0.563,0.39
		c0.216,0.097,0.452,0.145,0.708,0.145c0.408,0,0.752-0.072,1.031-0.216c0.28-0.145,0.533-0.356,0.756-0.637L45.957,25.647z
		 M45.152,23.355c-0.016-0.48-0.172-0.864-0.468-1.152s-0.704-0.433-1.224-0.433c-0.521,0-0.94,0.145-1.26,0.433
		c-0.32,0.288-0.513,0.672-0.576,1.152H45.152z"/>
	<linearGradient id="SVGID_4_" gradientUnits="userSpaceOnUse" x1="29.5732" y1="24.022" x2="122.5456" y2="23.0223">
		<stop  offset="0.004" style="stop-color:#FFB600"/>
		<stop  offset="1" style="stop-color:#FF386A"/>
	</linearGradient>
	<path fill="url(#SVGID_4_)" d="M47.613,22.382c0-0.256-0.009-0.496-0.025-0.72c-0.016-0.224-0.023-0.428-0.023-0.612h0.889
		c0,0.152,0.004,0.305,0.012,0.456c0.008,0.152,0.012,0.309,0.012,0.468H48.5c0.064-0.136,0.154-0.268,0.271-0.396
		s0.254-0.242,0.414-0.342c0.16-0.101,0.34-0.181,0.54-0.24c0.199-0.061,0.416-0.09,0.648-0.09c0.367,0,0.686,0.056,0.953,0.168
		c0.269,0.112,0.49,0.268,0.666,0.468s0.307,0.442,0.391,0.726c0.084,0.284,0.126,0.595,0.126,0.931v3.468h-0.937v-3.372
		c0-0.472-0.104-0.844-0.312-1.116c-0.208-0.271-0.532-0.408-0.972-0.408c-0.305,0-0.566,0.053-0.787,0.156
		c-0.219,0.104-0.399,0.252-0.539,0.444c-0.141,0.192-0.244,0.42-0.312,0.684c-0.068,0.265-0.102,0.557-0.102,0.876v2.736h-0.936
		V22.382z"/>
	<linearGradient id="SVGID_5_" gradientUnits="userSpaceOnUse" x1="29.5586" y1="22.7378" x2="122.5407" y2="21.738">
		<stop  offset="0.004" style="stop-color:#FFB600"/>
		<stop  offset="1" style="stop-color:#FF386A"/>
	</linearGradient>
	<path fill="url(#SVGID_5_)" d="M57.633,18.17h3.264c0.28,0,0.576,0.032,0.889,0.096c0.312,0.064,0.621,0.167,0.93,0.307
		s0.604,0.322,0.889,0.546c0.283,0.224,0.533,0.494,0.75,0.81c0.215,0.316,0.387,0.681,0.516,1.092
		c0.127,0.413,0.191,0.879,0.191,1.398c0,0.521-0.064,0.986-0.191,1.398c-0.129,0.412-0.301,0.775-0.516,1.092
		c-0.217,0.316-0.467,0.586-0.75,0.81c-0.285,0.225-0.58,0.406-0.889,0.546c-0.309,0.141-0.618,0.242-0.93,0.307
		c-0.312,0.063-0.608,0.096-0.889,0.096h-3.264V18.17z M58.641,25.731h1.92c0.488,0,0.94-0.064,1.356-0.192s0.776-0.326,1.08-0.594
		c0.304-0.269,0.544-0.61,0.72-1.026s0.264-0.916,0.264-1.5s-0.088-1.084-0.264-1.5s-0.416-0.758-0.72-1.026
		c-0.304-0.268-0.664-0.466-1.08-0.594s-0.868-0.191-1.356-0.191h-1.92V25.731z"/>
	<linearGradient id="SVGID_6_" gradientUnits="userSpaceOnUse" x1="29.5742" y1="24.2769" x2="122.5648" y2="23.277">
		<stop  offset="0.004" style="stop-color:#FFB600"/>
		<stop  offset="1" style="stop-color:#FF386A"/>
	</linearGradient>
	<path fill="url(#SVGID_6_)" d="M66.441,21.77c0.287-0.295,0.629-0.514,1.025-0.653s0.799-0.21,1.206-0.21
		c0.832,0,1.433,0.196,1.8,0.588c0.368,0.392,0.553,0.988,0.553,1.788v2.412c0,0.16,0.008,0.326,0.023,0.498s0.036,0.33,0.061,0.474
		h-0.9c-0.032-0.128-0.05-0.27-0.055-0.426c-0.004-0.156-0.006-0.294-0.006-0.414h-0.023c-0.184,0.288-0.43,0.523-0.738,0.708
		c-0.308,0.184-0.678,0.275-1.109,0.275c-0.289,0-0.559-0.035-0.811-0.107s-0.472-0.178-0.66-0.318
		c-0.188-0.14-0.338-0.313-0.449-0.521c-0.112-0.208-0.168-0.448-0.168-0.721c0-0.464,0.119-0.827,0.359-1.092
		c0.24-0.264,0.538-0.46,0.895-0.588c0.355-0.128,0.74-0.208,1.152-0.24c0.411-0.031,0.789-0.048,1.133-0.048h0.36v-0.168
		c0-0.408-0.122-0.716-0.366-0.924s-0.586-0.312-1.025-0.312c-0.305,0-0.603,0.051-0.895,0.15c-0.292,0.101-0.55,0.254-0.773,0.462
		L66.441,21.77z M69.152,23.966c-0.6,0-1.075,0.084-1.428,0.252c-0.352,0.168-0.527,0.444-0.527,0.828
		c0,0.353,0.117,0.603,0.354,0.75c0.236,0.148,0.53,0.222,0.883,0.222c0.271,0,0.51-0.046,0.713-0.138
		c0.205-0.092,0.375-0.214,0.511-0.366c0.136-0.151,0.239-0.33,0.312-0.533c0.072-0.204,0.112-0.422,0.12-0.654v-0.36H69.152z"/>
	<linearGradient id="SVGID_7_" gradientUnits="userSpaceOnUse" x1="29.5576" y1="23.6099" x2="122.5695" y2="22.6097">
		<stop  offset="0.004" style="stop-color:#FFB600"/>
		<stop  offset="1" style="stop-color:#FF386A"/>
	</linearGradient>
	<path fill="url(#SVGID_7_)" d="M75.812,21.842h-1.656v2.809c0,0.184,0.004,0.354,0.012,0.51s0.041,0.292,0.097,0.408
		c0.056,0.115,0.14,0.208,0.252,0.275c0.112,0.068,0.272,0.103,0.479,0.103c0.137,0,0.276-0.017,0.42-0.048
		c0.145-0.032,0.28-0.08,0.408-0.145l0.036,0.853c-0.16,0.071-0.338,0.123-0.534,0.155c-0.195,0.032-0.382,0.048-0.558,0.048
		c-0.336,0-0.604-0.044-0.804-0.132c-0.2-0.088-0.356-0.212-0.469-0.372c-0.111-0.159-0.186-0.357-0.222-0.594
		c-0.036-0.235-0.054-0.498-0.054-0.786v-3.084h-1.225V21.05h1.225v-1.596h0.936v1.596h1.656V21.842z"/>
	<linearGradient id="SVGID_8_" gradientUnits="userSpaceOnUse" x1="29.5664" y1="24.3892" x2="122.5755" y2="23.3891">
		<stop  offset="0.004" style="stop-color:#FFB600"/>
		<stop  offset="1" style="stop-color:#FF386A"/>
	</linearGradient>
	<path fill="url(#SVGID_8_)" d="M76.893,21.77c0.288-0.295,0.63-0.514,1.025-0.653c0.396-0.14,0.799-0.21,1.207-0.21
		c0.832,0,1.432,0.196,1.8,0.588s0.552,0.988,0.552,1.788v2.412c0,0.16,0.008,0.326,0.023,0.498c0.017,0.172,0.037,0.33,0.061,0.474
		h-0.9c-0.031-0.128-0.049-0.27-0.054-0.426c-0.004-0.156-0.006-0.294-0.006-0.414h-0.024c-0.184,0.288-0.43,0.523-0.737,0.708
		c-0.308,0.184-0.679,0.275-1.11,0.275c-0.288,0-0.558-0.035-0.811-0.107c-0.252-0.072-0.471-0.178-0.659-0.318
		c-0.188-0.14-0.339-0.313-0.45-0.521s-0.168-0.448-0.168-0.721c0-0.464,0.12-0.827,0.359-1.092c0.24-0.264,0.539-0.46,0.895-0.588
		s0.74-0.208,1.152-0.24c0.412-0.031,0.789-0.048,1.134-0.048h0.36v-0.168c0-0.408-0.123-0.716-0.366-0.924
		c-0.244-0.208-0.587-0.312-1.026-0.312c-0.304,0-0.602,0.051-0.894,0.15c-0.292,0.101-0.55,0.254-0.774,0.462L76.893,21.77z
		 M79.604,23.966c-0.6,0-1.075,0.084-1.428,0.252s-0.528,0.444-0.528,0.828c0,0.353,0.118,0.603,0.354,0.75
		c0.236,0.148,0.531,0.222,0.883,0.222c0.271,0,0.51-0.046,0.714-0.138s0.374-0.214,0.511-0.366c0.135-0.151,0.239-0.33,0.312-0.533
		c0.071-0.204,0.112-0.422,0.12-0.654v-0.36H79.604z"/>
	<linearGradient id="SVGID_9_" gradientUnits="userSpaceOnUse" x1="29.583" y1="23.0381" x2="122.5418" y2="22.0385">
		<stop  offset="0.004" style="stop-color:#FFB600"/>
		<stop  offset="1" style="stop-color:#FF386A"/>
	</linearGradient>
	<path fill="url(#SVGID_9_)" d="M86.697,18.17h1.008v8.496h-1.008V18.17z"/>
	<linearGradient id="SVGID_10_" gradientUnits="userSpaceOnUse" x1="29.5654" y1="24.4741" x2="122.5746" y2="23.474">
		<stop  offset="0.004" style="stop-color:#FFB600"/>
		<stop  offset="1" style="stop-color:#FF386A"/>
	</linearGradient>
	<path fill="url(#SVGID_10_)" d="M89.648,22.382c0-0.256-0.008-0.496-0.023-0.72c-0.017-0.224-0.024-0.428-0.024-0.612h0.888
		c0,0.152,0.004,0.305,0.013,0.456c0.008,0.152,0.012,0.309,0.012,0.468h0.024c0.063-0.136,0.154-0.268,0.27-0.396
		c0.116-0.128,0.254-0.242,0.414-0.342c0.16-0.101,0.34-0.181,0.54-0.24c0.2-0.061,0.416-0.09,0.647-0.09
		c0.369,0,0.687,0.056,0.955,0.168c0.268,0.112,0.489,0.268,0.666,0.468c0.176,0.2,0.306,0.442,0.39,0.726
		c0.084,0.284,0.126,0.595,0.126,0.931v3.468h-0.936v-3.372c0-0.472-0.104-0.844-0.312-1.116c-0.209-0.271-0.532-0.408-0.973-0.408
		c-0.304,0-0.565,0.053-0.785,0.156c-0.221,0.104-0.4,0.252-0.541,0.444c-0.139,0.192-0.244,0.42-0.312,0.684
		c-0.067,0.265-0.102,0.557-0.102,0.876v2.736h-0.937V22.382z"/>
	<linearGradient id="SVGID_11_" gradientUnits="userSpaceOnUse" x1="29.5586" y1="23.145" x2="122.5585" y2="22.145">
		<stop  offset="0.004" style="stop-color:#FFB600"/>
		<stop  offset="1" style="stop-color:#FF386A"/>
	</linearGradient>
	<path fill="url(#SVGID_11_)" d="M96.188,18.855c0-0.185,0.065-0.345,0.198-0.48c0.132-0.136,0.294-0.204,0.486-0.204
		c0.191,0,0.354,0.068,0.485,0.204s0.198,0.296,0.198,0.48c0,0.199-0.064,0.363-0.191,0.491c-0.129,0.128-0.293,0.192-0.492,0.192
		c-0.201,0-0.365-0.064-0.492-0.192C96.252,19.218,96.188,19.054,96.188,18.855z M96.404,21.05h0.937v5.616h-0.937V21.05z"/>
	<linearGradient id="SVGID_12_" gradientUnits="userSpaceOnUse" x1="29.5938" y1="23.894" x2="122.5582" y2="22.8944">
		<stop  offset="0.004" style="stop-color:#FFB600"/>
		<stop  offset="1" style="stop-color:#FF386A"/>
	</linearGradient>
	<path fill="url(#SVGID_12_)" d="M102.272,21.842h-1.655v2.809c0,0.184,0.004,0.354,0.012,0.51s0.039,0.292,0.096,0.408
		c0.056,0.115,0.14,0.208,0.252,0.275c0.111,0.068,0.271,0.103,0.48,0.103c0.135,0,0.275-0.017,0.42-0.048
		c0.144-0.032,0.279-0.08,0.408-0.145l0.035,0.853c-0.16,0.071-0.338,0.123-0.533,0.155c-0.197,0.032-0.383,0.048-0.559,0.048
		c-0.336,0-0.604-0.044-0.805-0.132c-0.199-0.088-0.355-0.212-0.467-0.372c-0.113-0.159-0.187-0.357-0.223-0.594
		c-0.035-0.235-0.054-0.498-0.054-0.786v-3.084h-1.224V21.05h1.224v-1.596h0.937v1.596h1.655V21.842z"/>
	<linearGradient id="SVGID_13_" gradientUnits="userSpaceOnUse" x1="29.6123" y1="23.2207" x2="122.5459" y2="22.2214">
		<stop  offset="0.004" style="stop-color:#FFB600"/>
		<stop  offset="1" style="stop-color:#FF386A"/>
	</linearGradient>
	<path fill="url(#SVGID_13_)" d="M103.305,18.855c0-0.185,0.065-0.345,0.197-0.48c0.133-0.136,0.295-0.204,0.486-0.204
		s0.354,0.068,0.486,0.204c0.132,0.136,0.197,0.296,0.197,0.48c0,0.199-0.063,0.363-0.191,0.491
		c-0.129,0.128-0.293,0.192-0.492,0.192c-0.2,0-0.364-0.064-0.492-0.192S103.305,19.054,103.305,18.855z M103.521,21.05h0.937v5.616
		h-0.937V21.05z"/>
	<linearGradient id="SVGID_14_" gradientUnits="userSpaceOnUse" x1="29.5742" y1="24.7046" x2="122.574" y2="23.7046">
		<stop  offset="0.004" style="stop-color:#FFB600"/>
		<stop  offset="1" style="stop-color:#FF386A"/>
	</linearGradient>
	<path fill="url(#SVGID_14_)" d="M106.244,21.77c0.288-0.295,0.63-0.514,1.025-0.653c0.396-0.14,0.799-0.21,1.207-0.21
		c0.832,0,1.432,0.196,1.8,0.588s0.552,0.988,0.552,1.788v2.412c0,0.16,0.008,0.326,0.023,0.498c0.017,0.172,0.037,0.33,0.061,0.474
		h-0.9c-0.031-0.128-0.049-0.27-0.054-0.426c-0.004-0.156-0.006-0.294-0.006-0.414h-0.024c-0.184,0.288-0.43,0.523-0.737,0.708
		c-0.308,0.184-0.679,0.275-1.11,0.275c-0.288,0-0.558-0.035-0.811-0.107c-0.252-0.072-0.471-0.178-0.659-0.318
		c-0.188-0.14-0.339-0.313-0.45-0.521s-0.168-0.448-0.168-0.721c0-0.464,0.12-0.827,0.359-1.092c0.24-0.264,0.539-0.46,0.895-0.588
		s0.74-0.208,1.152-0.24c0.412-0.031,0.789-0.048,1.134-0.048h0.36v-0.168c0-0.408-0.123-0.716-0.366-0.924
		c-0.244-0.208-0.587-0.312-1.026-0.312c-0.304,0-0.602,0.051-0.894,0.15c-0.292,0.101-0.55,0.254-0.774,0.462L106.244,21.77z
		 M108.956,23.966c-0.6,0-1.075,0.084-1.428,0.252S107,24.663,107,25.046c0,0.353,0.118,0.603,0.354,0.75
		c0.236,0.148,0.531,0.222,0.883,0.222c0.271,0,0.51-0.046,0.714-0.138s0.374-0.214,0.511-0.366c0.135-0.151,0.239-0.33,0.312-0.533
		c0.071-0.204,0.112-0.422,0.12-0.654v-0.36H108.956z"/>
	<linearGradient id="SVGID_15_" gradientUnits="userSpaceOnUse" x1="29.5791" y1="24.0371" x2="122.5673" y2="23.0372">
		<stop  offset="0.004" style="stop-color:#FFB600"/>
		<stop  offset="1" style="stop-color:#FF386A"/>
	</linearGradient>
	<path fill="url(#SVGID_15_)" d="M115.616,21.842h-1.655v2.809c0,0.184,0.004,0.354,0.012,0.51s0.039,0.292,0.096,0.408
		c0.056,0.115,0.14,0.208,0.252,0.275c0.111,0.068,0.271,0.103,0.48,0.103c0.135,0,0.275-0.017,0.42-0.048
		c0.144-0.032,0.279-0.08,0.408-0.145l0.035,0.853c-0.16,0.071-0.338,0.123-0.533,0.155c-0.197,0.032-0.383,0.048-0.559,0.048
		c-0.336,0-0.604-0.044-0.805-0.132c-0.199-0.088-0.355-0.212-0.467-0.372c-0.113-0.159-0.187-0.357-0.223-0.594
		c-0.035-0.235-0.054-0.498-0.054-0.786v-3.084h-1.224V21.05h1.224v-1.596h0.937v1.596h1.655V21.842z"/>
	<linearGradient id="SVGID_16_" gradientUnits="userSpaceOnUse" x1="29.5605" y1="23.3647" x2="122.5605" y2="22.3647">
		<stop  offset="0.004" style="stop-color:#FFB600"/>
		<stop  offset="1" style="stop-color:#FF386A"/>
	</linearGradient>
	<path fill="url(#SVGID_16_)" d="M116.647,18.855c0-0.185,0.065-0.345,0.198-0.48c0.132-0.136,0.294-0.204,0.486-0.204
		c0.191,0,0.354,0.068,0.485,0.204s0.198,0.296,0.198,0.48c0,0.199-0.064,0.363-0.191,0.491c-0.129,0.128-0.293,0.192-0.492,0.192
		c-0.201,0-0.365-0.064-0.492-0.192C116.711,19.218,116.647,19.054,116.647,18.855z M116.863,21.05h0.937v5.616h-0.937V21.05z"/>
	<linearGradient id="SVGID_17_" gradientUnits="userSpaceOnUse" x1="29.5674" y1="24.8364" x2="122.5755" y2="23.8363">
		<stop  offset="0.004" style="stop-color:#FFB600"/>
		<stop  offset="1" style="stop-color:#FF386A"/>
	</linearGradient>
	<path fill="url(#SVGID_17_)" d="M122.215,26.667h-1.031l-2.292-5.616h1.092l1.752,4.404h0.024l1.668-4.404h1.008L122.215,26.667z"
		/>
	<linearGradient id="SVGID_18_" gradientUnits="userSpaceOnUse" x1="29.5596" y1="24.9165" x2="122.5758" y2="23.9163">
		<stop  offset="0.004" style="stop-color:#FFB600"/>
		<stop  offset="1" style="stop-color:#FF386A"/>
	</linearGradient>
	<path fill="url(#SVGID_18_)" d="M130.459,25.647c-0.336,0.432-0.703,0.733-1.104,0.905s-0.863,0.258-1.392,0.258
		c-0.44,0-0.837-0.077-1.188-0.233s-0.65-0.366-0.894-0.63c-0.244-0.265-0.433-0.576-0.563-0.937
		c-0.133-0.359-0.199-0.744-0.199-1.151c0-0.433,0.072-0.83,0.217-1.194c0.144-0.364,0.344-0.676,0.6-0.937
		c0.256-0.26,0.561-0.462,0.912-0.605c0.352-0.145,0.736-0.216,1.152-0.216c0.392,0,0.752,0.065,1.08,0.198
		c0.328,0.132,0.609,0.323,0.846,0.575s0.418,0.561,0.546,0.925c0.128,0.363,0.192,0.777,0.192,1.241v0.301h-4.537
		c0.017,0.239,0.074,0.47,0.175,0.689c0.1,0.22,0.229,0.412,0.39,0.576s0.348,0.294,0.564,0.39c0.216,0.097,0.451,0.145,0.708,0.145
		c0.407,0,0.751-0.072,1.032-0.216c0.279-0.145,0.531-0.356,0.756-0.637L130.459,25.647z M129.656,23.355
		c-0.017-0.48-0.173-0.864-0.469-1.152s-0.704-0.433-1.224-0.433c-0.521,0-0.94,0.145-1.261,0.433
		c-0.319,0.288-0.512,0.672-0.576,1.152H129.656z"/>
	<linearGradient id="SVGID_19_" gradientUnits="userSpaceOnUse" x1="29.6016" y1="27.1294" x2="122.6015" y2="26.1294">
		<stop  offset="0.004" style="stop-color:#FFB600"/>
		<stop  offset="1" style="stop-color:#FF386A"/>
	</linearGradient>
	<path fill="url(#SVGID_19_)" d="M132.896,25.298c0.2,0,0.37,0.07,0.511,0.21c0.139,0.141,0.209,0.311,0.209,0.51
		c0,0.2-0.074,0.37-0.222,0.511c-0.147,0.14-0.313,0.21-0.498,0.21s-0.351-0.07-0.498-0.21c-0.147-0.141-0.222-0.311-0.222-0.511
		c0-0.199,0.07-0.369,0.21-0.51C132.525,25.369,132.695,25.298,132.896,25.298z"/>
</g>
</svg>
