<?xml version="1.0" encoding="utf-8"?>
<!-- Generator: Adobe Illustrator 16.0.0, SVG Export Plug-In . SVG Version: 6.00 Build 0)  -->
<!DOCTYPE svg PUBLIC "-//W3C//DTD SVG 1.1//EN" "http://www.w3.org/Graphics/SVG/1.1/DTD/svg11.dtd">
<svg version="1.1" id="Layer_1" xmlns="http://www.w3.org/2000/svg" xmlns:xlink="http://www.w3.org/1999/xlink" x="0px" y="0px"
	 width="39.333px" height="31.333px" viewBox="0 0 39.333 31.333" enable-background="new 0 0 39.333 31.333" xml:space="preserve">
<g>
	<path fill="#FFB600" d="M30.106,8.63c-0.774,0.367-1.61,0.612-2.484,0.718c0.9-0.561,1.582-1.455,1.902-2.531
		c-0.834,0.53-1.764,0.909-2.748,1.108c-0.791-0.886-1.908-1.439-3.165-1.439c-2.37,0-4.309,2.05-4.309,4.572
		c0,0.358,0.039,0.707,0.109,1.049c-3.596-0.197-6.783-2.013-8.911-4.782c-0.374,0.673-0.585,1.463-0.585,2.3
		c0,1.585,0.766,2.986,1.927,3.805c-0.709-0.023-1.381-0.224-1.959-0.572v0.059c0,2.217,1.498,4.069,3.464,4.49
		c-0.354,0.096-0.751,0.159-1.142,0.159c-0.277,0-0.546-0.029-0.812-0.084c0.55,1.82,2.146,3.146,4.041,3.181
		c-1.484,1.229-3.342,1.954-5.375,1.954c-0.35,0-0.68-0.02-1.034-0.061c1.922,1.292,4.203,2.052,6.632,2.052
		c7.954,0,12.303-6.971,12.303-13.02c0-0.196,0-0.394-0.009-0.59C28.802,10.349,29.523,9.546,30.106,8.63"/>
</g>
</svg>
