<?xml version="1.0" encoding="utf-8"?>
<!-- Generator: Adobe Illustrator 16.0.0, SVG Export Plug-In . SVG Version: 6.00 Build 0)  -->
<!DOCTYPE svg PUBLIC "-//W3C//DTD SVG 1.1//EN" "http://www.w3.org/Graphics/SVG/1.1/DTD/svg11.dtd">
<svg version="1.1" id="Layer_1" xmlns="http://www.w3.org/2000/svg" xmlns:xlink="http://www.w3.org/1999/xlink" x="0px" y="0px"
	 width="33.5px" height="33.333px" viewBox="0 0 33.5 33.333" enable-background="new 0 0 33.5 33.333" xml:space="preserve">
<g>
	<circle id="XMLID_23_" fill="#40BAEC" cx="17.032" cy="17.137" r="15.635"/>
	<path id="XMLID_22_" fill="#FFFFFF" d="M26.294,12.368c-0.682,0.297-1.412,0.497-2.182,0.586c0.786-0.463,1.387-1.195,1.671-2.068
		c-0.734,0.43-1.547,0.74-2.414,0.908c-0.693-0.728-1.68-1.182-2.772-1.182c-2.098,0-3.8,1.675-3.8,3.739
		c0,0.294,0.034,0.579,0.097,0.854c-3.157-0.156-5.958-1.646-7.831-3.909c-0.328,0.552-0.517,1.194-0.517,1.88
		c0,1.298,0.673,2.442,1.691,3.114c-0.621-0.02-1.208-0.188-1.721-0.469c0,0.015,0,0.032,0,0.048c0,0.479,0.093,0.934,0.26,1.354
		c0.464,1.174,1.509,2.061,2.789,2.313c-0.32,0.084-0.654,0.131-1.002,0.131c-0.244,0-0.483-0.023-0.715-0.067
		c0.484,1.485,1.888,2.567,3.55,2.598c-1.303,1.004-2.94,1.603-4.72,1.603c-0.308,0-0.609-0.018-0.907-0.052
		c1.682,1.061,3.681,1.679,5.825,1.679c5.941,0,9.59-4.115,10.554-8.385c0.169-0.753,0.257-1.513,0.257-2.258
		c0-0.162-0.002-0.324-0.01-0.484C25.142,13.775,25.787,13.116,26.294,12.368z"/>
</g>
</svg>
