<?xml version="1.0" encoding="utf-8"?>
<!-- Generator: Adobe Illustrator 16.0.0, SVG Export Plug-In . SVG Version: 6.00 Build 0)  -->
<!DOCTYPE svg PUBLIC "-//W3C//DTD SVG 1.1//EN" "http://www.w3.org/Graphics/SVG/1.1/DTD/svg11.dtd">
<svg version="1.1" id="Layer_1" xmlns="http://www.w3.org/2000/svg" xmlns:xlink="http://www.w3.org/1999/xlink" x="0px" y="0px"
	 width="111.667px" height="131.333px" viewBox="0 0 111.667 131.333" enable-background="new 0 0 111.667 131.333"
	 xml:space="preserve">
<g>
	<g>
		<g>
			<g transform="translate(-237.000000, -93.000000)">
				<g transform="translate(238.000000, 94.000000)">
					<linearGradient id="SVGID_1_" gradientUnits="userSpaceOnUse" x1="38.3623" y1="62.0029" x2="73.9453" y2="62.0029">
						<stop  offset="0.004" style="stop-color:#FFB600"/>
						<stop  offset="1" style="stop-color:#FF386A"/>
					</linearGradient>
					<path fill="none" stroke="url(#SVGID_1_)" stroke-width="1.1" stroke-miterlimit="10" d="M73.396,62.003
						c0-9.522-7.72-17.241-17.241-17.241c-9.523,0-17.242,7.719-17.242,17.241c0,9.523,7.719,17.241,17.242,17.241
						C65.676,79.244,73.396,71.526,73.396,62.003z"/>
					<linearGradient id="SVGID_2_" gradientUnits="userSpaceOnUse" x1="49.418" y1="71.332" x2="62.8896" y2="71.332">
						<stop  offset="0.004" style="stop-color:#FFB600"/>
						<stop  offset="1" style="stop-color:#FF386A"/>
					</linearGradient>
					<path fill="none" stroke="url(#SVGID_2_)" stroke-width="1.1" stroke-miterlimit="10" d="M49.934,69.331
						c0.812,2.174,3.348,3.645,6.221,3.645c2.872,0,5.407-1.471,6.22-3.645"/>
				</g>
			</g>
		</g>
		<linearGradient id="SVGID_3_" gradientUnits="userSpaceOnUse" x1="48.8066" y1="61.2568" x2="51.2734" y2="61.2568">
			<stop  offset="0.004" style="stop-color:#FFB600"/>
			<stop  offset="1" style="stop-color:#FF386A"/>
		</linearGradient>
		<circle fill="url(#SVGID_3_)" cx="50.04" cy="61.257" r="1.233"/>
		<linearGradient id="SVGID_4_" gradientUnits="userSpaceOnUse" x1="62.834" y1="61.2568" x2="65.2988" y2="61.2568">
			<stop  offset="0.004" style="stop-color:#FFB600"/>
			<stop  offset="1" style="stop-color:#FF386A"/>
		</linearGradient>
		<circle fill="url(#SVGID_4_)" cx="64.066" cy="61.257" r="1.232"/>
	</g>
	<linearGradient id="SVGID_5_" gradientUnits="userSpaceOnUse" x1="29.0928" y1="65.0005" x2="85.5723" y2="65.0005">
		<stop  offset="0.004" style="stop-color:#FFB600"/>
		<stop  offset="1" style="stop-color:#FF386A"/>
	</linearGradient>
	<path fill="none" stroke="url(#SVGID_5_)" stroke-width="1.1" stroke-miterlimit="10" d="M80.5,23.466H34.166
		c-2.492,0-4.523,2.03-4.523,4.522v74.024c0,2.492,2.031,4.522,4.523,4.522H80.5c2.492,0,4.522-2.03,4.522-4.522V27.988
		C85.022,25.496,82.992,23.466,80.5,23.466z M51.61,28.356h11.538c0.646,0,1.199,0.556,1.199,1.201c0,0.646-0.554,1.199-1.199,1.199
		H51.61c-0.646,0-1.2-0.553-1.2-1.199C50.41,28.818,50.965,28.356,51.61,28.356z M57.333,101.734c-1.938,0-3.507-1.568-3.507-3.507
		c0-1.938,1.568-3.507,3.507-3.507s3.507,1.569,3.507,3.507C60.84,100.166,59.271,101.734,57.333,101.734z"/>
	<linearGradient id="SVGID_6_" gradientUnits="userSpaceOnUse" x1="33" y1="62.2993" x2="82" y2="62.2993">
		<stop  offset="0.004" style="stop-color:#FFB600"/>
		<stop  offset="1" style="stop-color:#FF386A"/>
	</linearGradient>
	<path fill="none" stroke="url(#SVGID_6_)" stroke-miterlimit="10" d="M81.5,89.32c0,0.321-0.486-0.154-0.804-0.154H34.162
		c-0.318,0-0.662,0.475-0.662,0.154V37.025c0-0.32,0.344-1.859,0.662-1.859h46.534c0.317,0,0.804,1.539,0.804,1.859V89.32z"/>
</g>
</svg>
